<svg width="1486" height="17" viewBox="0 0 1486 17" fill="none" xmlns="http://www.w3.org/2000/svg">
<path d="M19.3807 9.9736L18.1727 10.5976V9.5976L19.5967 8.8136H20.4687V14.4136H19.3807V9.9736Z" fill="#555555"/>
<path d="M63.2325 13.1896L66.1125 10.5736V10.0056L65.8485 9.7416H64.5525L64.2885 10.0056V10.5736H63.2005V9.6776L64.0645 8.8136H66.3365L67.2005 9.6776V10.8936L64.3605 13.4216V13.5016H67.2325V14.4136H63.2325V13.1896Z" fill="#555555"/>
<path d="M109.196 13.5496V12.6696H110.284V13.2216L110.548 13.4856H111.988L112.252 13.2216V12.3176L111.996 12.0616H110.396V11.1336H111.996L112.252 10.8776V10.0056L111.988 9.7416H110.596L110.332 10.0056V10.5576H109.244V9.6776L110.108 8.8136H112.476L113.34 9.6776V11.1976L112.932 11.5976L113.34 12.0056V13.5496L112.476 14.4136H110.06L109.196 13.5496Z" fill="#555555"/>
<path d="M154.685 13.3736H151.981V12.2776L154.469 8.8136H155.773V12.4456H156.453V13.3736H155.773V14.4136H154.685V13.3736ZM154.733 12.4776V10.0296H154.701L153.045 12.3656V12.4776H154.733Z" fill="#555555"/>
<path d="M198.652 13.5496V12.6376H199.74V13.2216L200.004 13.4856H201.428L201.692 13.2216V11.9576L201.428 11.6936H198.732V8.8136H202.668V9.7416H199.804V10.7656H201.908L202.78 11.6376V13.5496L201.916 14.4136H199.516L198.652 13.5496Z" fill="#555555"/>
<path d="M238.669 13.5496V9.6776L239.533 8.8136H241.949L242.813 9.6776V10.4776H241.725V10.0216L241.445 9.7416H240.037L239.757 10.0216V11.3416L240.229 10.8856H241.981L242.845 11.7496V13.5496L241.981 14.4136H239.533L238.669 13.5496ZM241.477 13.4856L241.757 13.2056V12.0936L241.477 11.8136H240.341L239.757 12.4136V13.2056L240.037 13.4856H241.477Z" fill="#555555"/>
<path d="M285.794 9.8136V9.7416H282.994V8.8136H286.93V9.8376L284.682 14.4136H283.53L285.794 9.8136Z" fill="#555555"/>
<path d="M327.001 13.5496V12.0296L327.505 11.5256L327.081 11.1016V9.6776L327.945 8.8136H330.361L331.225 9.6776V11.1016L330.801 11.5256L331.305 12.0296V13.5496L330.441 14.4136H327.865L327.001 13.5496ZM329.857 11.1176L330.137 10.8376V10.0216L329.857 9.7416H328.449L328.169 10.0216V10.8376L328.449 11.1176H329.857ZM329.937 13.4856L330.217 13.2056V12.3096L329.937 12.0296H328.369L328.089 12.3096V13.2056L328.369 13.4856H329.937Z" fill="#555555"/>
<path d="M371.124 13.5496V12.8376H372.212V13.2056L372.492 13.4856H373.852L374.132 13.2056V11.9176L373.676 12.3736H371.908L371.044 11.5096V9.6776L371.908 8.8136H374.356L375.22 9.6776V13.5496L374.356 14.4136H371.988L371.124 13.5496ZM373.612 11.4456L374.132 10.9256V10.0216L373.852 9.7416H372.412L372.132 10.0216V11.1656L372.412 11.4456H373.612Z" fill="#555555"/>
<path d="M415.924 9.9736L414.716 10.5976V9.5976L416.14 8.8136H417.012V14.4136H415.924V9.9736ZM418.01 13.4856V9.7416L418.938 8.8136H421.418L422.346 9.7416V13.4856L421.418 14.4136H418.938L418.01 13.4856ZM420.906 13.4856L421.258 13.1336V10.0936L420.906 9.7416H419.45L419.098 10.0936V13.1336L419.45 13.4856H420.906Z" fill="#555555"/>
<path d="M461.353 9.9736L460.145 10.5976V9.5976L461.569 8.8136H462.441V14.4136H461.353V9.9736ZM464.408 9.9736L463.2 10.5976V9.5976L464.624 8.8136H465.496V14.4136H464.408V9.9736Z" fill="#555555"/>
<path d="M504.084 9.9736L502.876 10.5976V9.5976L504.3 8.8136H505.172V14.4136H504.084V9.9736ZM506.042 13.1896L508.922 10.5736V10.0056L508.658 9.7416H507.362L507.098 10.0056V10.5736H506.01V9.6776L506.874 8.8136H509.146L510.01 9.6776V10.8936L507.17 13.4216V13.5016H510.042V14.4136H506.042V13.1896Z" fill="#555555"/>
<path d="M548.536 9.9736L547.328 10.5976V9.5976L548.752 8.8136H549.624V14.4136H548.536V9.9736ZM550.462 13.5496V12.6696H551.55V13.2216L551.814 13.4856H553.254L553.518 13.2216V12.3176L553.262 12.0616H551.662V11.1336H553.262L553.518 10.8776V10.0056L553.254 9.7416H551.862L551.598 10.0056V10.5576H550.51V9.6776L551.374 8.8136H553.742L554.606 9.6776V11.1976L554.198 11.5976L554.606 12.0056V13.5496L553.742 14.4136H551.326L550.462 13.5496Z" fill="#555555"/>
<path d="M592.716 9.9736L591.508 10.5976V9.5976L592.932 8.8136H593.804V14.4136H592.716V9.9736ZM597.147 13.3736H594.443V12.2776L596.931 8.8136H598.235V12.4456H598.915V13.3736H598.235V14.4136H597.147V13.3736ZM597.195 12.4776V10.0296H597.163L595.507 12.3656V12.4776H597.195Z" fill="#555555"/>
<path d="M636.694 9.9736L635.486 10.5976V9.5976L636.91 8.8136H637.782V14.4136H636.694V9.9736ZM638.701 13.5496V12.6376H639.789V13.2216L640.053 13.4856H641.477L641.741 13.2216V11.9576L641.477 11.6936H638.781V8.8136H642.717V9.7416H639.853V10.7656H641.957L642.829 11.6376V13.5496L641.965 14.4136H639.565L638.701 13.5496Z" fill="#555555"/>
<path d="M681.392 9.9736L680.184 10.5976V9.5976L681.608 8.8136H682.48V14.4136H681.392V9.9736ZM683.479 13.5496V9.6776L684.343 8.8136H686.759L687.623 9.6776V10.4776H686.535V10.0216L686.255 9.7416H684.847L684.567 10.0216V11.3416L685.039 10.8856H686.791L687.655 11.7496V13.5496L686.791 14.4136H684.343L683.479 13.5496ZM686.287 13.4856L686.567 13.2056V12.0936L686.287 11.8136H685.151L684.567 12.4136V13.2056L684.847 13.4856H686.287Z" fill="#555555"/>
<path d="M725.943 9.9736L724.735 10.5976V9.5976L726.159 8.8136H727.031V14.4136H725.943V9.9736ZM730.43 9.8136V9.7416H727.63V8.8136H731.566V9.8376L729.318 14.4136H728.166L730.43 9.8136Z" fill="#555555"/>
<path d="M770.243 9.9736L769.035 10.5976V9.5976L770.459 8.8136H771.331V14.4136H770.243V9.9736ZM772.29 13.5496V12.0296L772.794 11.5256L772.37 11.1016V9.6776L773.234 8.8136H775.65L776.514 9.6776V11.1016L776.09 11.5256L776.594 12.0296V13.5496L775.73 14.4136H773.154L772.29 13.5496ZM775.146 11.1176L775.426 10.8376V10.0216L775.146 9.7416H773.738L773.458 10.0216V10.8376L773.738 11.1176H775.146ZM775.226 13.4856L775.506 13.2056V12.3096L775.226 12.0296H773.658L773.378 12.3096V13.2056L773.658 13.4856H775.226Z" fill="#555555"/>
<path d="M814.373 9.9736L813.165 10.5976V9.5976L814.589 8.8136H815.461V14.4136H814.373V9.9736ZM816.5 13.5496V12.8376H817.588V13.2056L817.868 13.4856H819.228L819.508 13.2056V11.9176L819.052 12.3736H817.284L816.42 11.5096V9.6776L817.284 8.8136H819.732L820.596 9.6776V13.5496L819.732 14.4136H817.364L816.5 13.5496ZM818.988 11.4456L819.508 10.9256V10.0216L819.228 9.7416H817.788L817.508 10.0216V11.1656L817.788 11.4456H818.988Z" fill="#555555"/>
<path d="M856.471 13.1896L859.351 10.5736V10.0056L859.087 9.7416H857.791L857.527 10.0056V10.5736H856.439V9.6776L857.303 8.8136H859.575L860.439 9.6776V10.8936L857.599 13.4216V13.5016H860.471V14.4136H856.471V13.1896ZM861.193 13.4856V9.7416L862.121 8.8136H864.601L865.529 9.7416V13.4856L864.601 14.4136H862.121L861.193 13.4856ZM864.089 13.4856L864.441 13.1336V10.0936L864.089 9.7416H862.633L862.281 10.0936V13.1336L862.633 13.4856H864.089Z" fill="#555555"/>
<path d="M901.64 13.1896L904.52 10.5736V10.0056L904.256 9.7416H902.96L902.696 10.0056V10.5736H901.608V9.6776L902.472 8.8136H904.744L905.608 9.6776V10.8936L902.768 13.4216V13.5016H905.64V14.4136H901.64V13.1896ZM907.33 9.9736L906.122 10.5976V9.5976L907.546 8.8136H908.418V14.4136H907.33V9.9736Z" fill="#555555"/>
<path d="M945.218 13.1896L948.098 10.5736V10.0056L947.834 9.7416H946.538L946.274 10.0056V10.5736H945.186V9.6776L946.05 8.8136H948.322L949.186 9.6776V10.8936L946.346 13.4216V13.5016H949.218V14.4136H945.218V13.1896ZM949.812 13.1896L952.692 10.5736V10.0056L952.428 9.7416H951.132L950.868 10.0056V10.5736H949.78V9.6776L950.644 8.8136H952.916L953.78 9.6776V10.8936L950.94 13.4216V13.5016H953.812V14.4136H949.812V13.1896Z" fill="#555555"/>
<path d="M988.757 13.1896L991.637 10.5736V10.0056L991.373 9.7416H990.077L989.813 10.0056V10.5736H988.725V9.6776L989.589 8.8136H991.861L992.725 9.6776V10.8936L989.885 13.4216V13.5016H992.757V14.4136H988.757V13.1896ZM993.319 13.5496V12.6696H994.407V13.2216L994.671 13.4856H996.111L996.375 13.2216V12.3176L996.119 12.0616H994.519V11.1336H996.119L996.375 10.8776V10.0056L996.111 9.7416H994.719L994.455 10.0056V10.5576H993.367V9.6776L994.231 8.8136H996.599L997.463 9.6776V11.1976L997.055 11.5976L997.463 12.0056V13.5496L996.599 14.4136H994.183L993.319 13.5496Z" fill="#555555"/>
<path d="M1033.2 13.1896L1036.08 10.5736V10.0056L1035.81 9.7416H1034.52L1034.25 10.0056V10.5736H1033.17V9.6776L1034.03 8.8136H1036.3L1037.17 9.6776V10.8936L1034.33 13.4216V13.5016H1037.2V14.4136H1033.2V13.1896ZM1040.26 13.3736H1037.56V12.2776L1040.05 8.8136H1041.35V12.4456H1042.03V13.3736H1041.35V14.4136H1040.26V13.3736ZM1040.31 12.4776V10.0296H1040.28L1038.62 12.3656V12.4776H1040.31Z" fill="#555555"/>
<path d="M1077.74 13.1896L1080.62 10.5736V10.0056L1080.36 9.7416H1079.06L1078.8 10.0056V10.5736H1077.71V9.6776L1078.57 8.8136H1080.85L1081.71 9.6776V10.8936L1078.87 13.4216V13.5016H1081.74V14.4136H1077.74V13.1896ZM1082.38 13.5496V12.6376H1083.47V13.2216L1083.74 13.4856H1085.16L1085.42 13.2216V11.9576L1085.16 11.6936H1082.46V8.8136H1086.4V9.7416H1083.54V10.7656H1085.64L1086.51 11.6376V13.5496L1085.65 14.4136H1083.25L1082.38 13.5496Z" fill="#555555"/>
<path d="M1122.03 13.1896L1124.91 10.5736V10.0056L1124.64 9.7416H1123.35L1123.08 10.0056V10.5736H1121.99V9.6776L1122.86 8.8136H1125.13L1125.99 9.6776V10.8936L1123.15 13.4216V13.5016H1126.03V14.4136H1122.03V13.1896ZM1126.75 13.5496V9.6776L1127.61 8.8136H1130.03L1130.89 9.6776V10.4776H1129.8V10.0216L1129.52 9.7416H1128.12L1127.84 10.0216V11.3416L1128.31 10.8856H1130.06L1130.92 11.7496V13.5496L1130.06 14.4136H1127.61L1126.75 13.5496ZM1129.56 13.4856L1129.84 13.2056V12.0936L1129.56 11.8136H1128.42L1127.84 12.4136V13.2056L1128.12 13.4856H1129.56Z" fill="#555555"/>
<path d="M1166.93 13.1896L1169.81 10.5736V10.0056L1169.54 9.7416H1168.25L1167.98 10.0056V10.5736H1166.89V9.6776L1167.76 8.8136H1170.03L1170.89 9.6776V10.8936L1168.05 13.4216V13.5016H1170.93V14.4136H1166.93V13.1896ZM1174.05 9.8136V9.7416H1171.25V8.8136H1175.18V9.8376L1172.94 14.4136H1171.78L1174.05 9.8136Z" fill="#555555"/>
<path d="M1209.96 13.1896L1212.84 10.5736V10.0056L1212.58 9.7416H1211.28L1211.02 10.0056V10.5736H1209.93V9.6776L1210.8 8.8136H1213.07L1213.93 9.6776V10.8936L1211.09 13.4216V13.5016H1213.96V14.4136H1209.96V13.1896ZM1214.65 13.5496V12.0296L1215.15 11.5256L1214.73 11.1016V9.6776L1215.59 8.8136H1218.01L1218.87 9.6776V11.1016L1218.45 11.5256L1218.95 12.0296V13.5496L1218.09 14.4136H1215.51L1214.65 13.5496ZM1217.5 11.1176L1217.78 10.8376V10.0216L1217.5 9.7416H1216.09L1215.81 10.0216V10.8376L1216.09 11.1176H1217.5ZM1217.58 13.4856L1217.86 13.2056V12.3096L1217.58 12.0296H1216.01L1215.73 12.3096V13.2056L1216.01 13.4856H1217.58Z" fill="#555555"/>
<path d="M1255.01 13.1896L1257.89 10.5736V10.0056L1257.62 9.7416H1256.33L1256.06 10.0056V10.5736H1254.98V9.6776L1255.84 8.8136H1258.11L1258.98 9.6776V10.8936L1256.14 13.4216V13.5016H1259.01V14.4136H1255.01V13.1896ZM1259.77 13.5496V12.8376H1260.86V13.2056L1261.14 13.4856H1262.5L1262.78 13.2056V11.9176L1262.32 12.3736H1260.55L1259.69 11.5096V9.6776L1260.55 8.8136H1263L1263.87 9.6776V13.5496L1263 14.4136H1260.63L1259.77 13.5496ZM1262.26 11.4456L1262.78 10.9256V10.0216L1262.5 9.7416H1261.06L1260.78 10.0216V11.1656L1261.06 11.4456H1262.26Z" fill="#555555"/>
<path d="M1298.91 13.5496V12.6696H1300V13.2216L1300.26 13.4856H1301.7L1301.97 13.2216V12.3176L1301.71 12.0616H1300.11V11.1336H1301.71L1301.97 10.8776V10.0056L1301.7 9.7416H1300.31L1300.05 10.0056V10.5576H1298.96V9.6776L1299.82 8.8136H1302.19L1303.06 9.6776V11.1976L1302.65 11.5976L1303.06 12.0056V13.5496L1302.19 14.4136H1299.78L1298.91 13.5496ZM1303.89 13.4856V9.7416L1304.82 8.8136H1307.3L1308.23 9.7416V13.4856L1307.3 14.4136H1304.82L1303.89 13.4856ZM1306.79 13.4856L1307.14 13.1336V10.0936L1306.79 9.7416H1305.33L1304.98 10.0936V13.1336L1305.33 13.4856H1306.79Z" fill="#555555"/>
<path d="M1344.49 13.5496V12.6696H1345.58V13.2216L1345.85 13.4856H1347.29L1347.55 13.2216V12.3176L1347.29 12.0616H1345.69V11.1336H1347.29L1347.55 10.8776V10.0056L1347.29 9.7416H1345.89L1345.63 10.0056V10.5576H1344.54V9.6776L1345.41 8.8136H1347.77L1348.64 9.6776V11.1976L1348.23 11.5976L1348.64 12.0056V13.5496L1347.77 14.4136H1345.36L1344.49 13.5496ZM1350.44 9.9736L1349.24 10.5976V9.5976L1350.66 8.8136H1351.53V14.4136H1350.44V9.9736Z" fill="#555555"/>
<path d="M1387.73 13.5496V12.6696H1388.81V13.2216L1389.08 13.4856H1390.52L1390.78 13.2216V12.3176L1390.53 12.0616H1388.93V11.1336H1390.53L1390.78 10.8776V10.0056L1390.52 9.7416H1389.13L1388.86 10.0056V10.5576H1387.77V9.6776L1388.64 8.8136H1391.01L1391.87 9.6776V11.1976L1391.46 11.5976L1391.87 12.0056V13.5496L1391.01 14.4136H1388.59L1387.73 13.5496ZM1392.58 13.1896L1395.46 10.5736V10.0056L1395.19 9.7416H1393.9L1393.63 10.0056V10.5736H1392.55V9.6776L1393.41 8.8136H1395.68L1396.55 9.6776V10.8936L1393.71 13.4216V13.5016H1396.58V14.4136H1392.58V13.1896Z" fill="#555555"/>
<path d="M1431.96 13.5496V12.6696H1433.05V13.2216L1433.31 13.4856H1434.75L1435.02 13.2216V12.3176L1434.76 12.0616H1433.16V11.1336H1434.76L1435.02 10.8776V10.0056L1434.75 9.7416H1433.36L1433.1 10.0056V10.5576H1432.01V9.6776L1432.87 8.8136H1435.24L1436.1 9.6776V11.1976L1435.7 11.5976L1436.1 12.0056V13.5496L1435.24 14.4136H1432.82L1431.96 13.5496ZM1436.78 13.5496V12.6696H1437.87V13.2216L1438.13 13.4856H1439.57L1439.84 13.2216V12.3176L1439.58 12.0616H1437.98V11.1336H1439.58L1439.84 10.8776V10.0056L1439.57 9.7416H1438.18L1437.92 10.0056V10.5576H1436.83V9.6776L1437.69 8.8136H1440.06L1440.92 9.6776V11.1976L1440.52 11.5976L1440.92 12.0056V13.5496L1440.06 14.4136H1437.64L1436.78 13.5496Z" fill="#555555"/>
<path d="M1476.05 13.5496V12.6696H1477.14V13.2216L1477.41 13.4856H1478.85L1479.11 13.2216V12.3176L1478.85 12.0616H1477.25V11.1336H1478.85L1479.11 10.8776V10.0056L1478.85 9.7416H1477.45L1477.19 10.0056V10.5576H1476.1V9.6776L1476.97 8.8136H1479.33L1480.2 9.6776V11.1976L1479.79 11.5976L1480.2 12.0056V13.5496L1479.33 14.4136H1476.92L1476.05 13.5496ZM1483.38 13.3736H1480.67V12.2776L1483.16 8.8136H1484.47V12.4456H1485.15V13.3736H1484.47V14.4136H1483.38V13.3736ZM1483.43 12.4776V10.0296H1483.39L1481.74 12.3656V12.4776H1483.43Z" fill="#555555"/>
<path d="M0.500001 0.413597L0.5 16.4136" stroke="#666666"/>
<path d="M44.1522 0.413597L44.1522 16.4136" stroke="#666666"/>
<path d="M89.1522 0.413597L89.1522 16.4136" stroke="#666666"/>
<path d="M133.152 0.413597L133.152 16.4136" stroke="#666666"/>
<path d="M177.5 0.413597L177.5 16.4136" stroke="#666666"/>
<path d="M221.217 0.413597L221.217 16.4136" stroke="#666666"/>
<path d="M265.543 0.413597L265.543 16.4136" stroke="#666666"/>
<path d="M310.152 0.413597L310.152 16.4136" stroke="#666666"/>
<path d="M354.152 0.413597L354.152 16.4136" stroke="#666666"/>
<path d="M399.152 0.413597L399.152 16.4136" stroke="#666666"/>
<path d="M443.5 0.413597L443.5 16.4136" stroke="#666666"/>
<path d="M487.5 0.413597L487.5 16.4136" stroke="#666666"/>
<path d="M532.065 0.413597L532.065 16.4136" stroke="#666666"/>
<path d="M576.152 0.413597L576.152 16.4136" stroke="#666666"/>
<path d="M797.5 0.413597L797.5 16.4136" stroke="#666666"/>
<path d="M842.065 0.413597L842.065 16.4136" stroke="#666666"/>
<path d="M886.152 0.413597L886.152 16.4136" stroke="#666666"/>
<path d="M930.5 0.413597L930.5 16.4136" stroke="#666666"/>
<path d="M974.152 0.413597L974.152 16.4136" stroke="#666666"/>
<path d="M1018.5 0.413597L1018.5 16.4136" stroke="#666666"/>
<path d="M1063.15 0.413597L1063.15 16.4136" stroke="#666666"/>
<path d="M1107.5 0.413597L1107.5 16.4136" stroke="#666666"/>
<path d="M1151.5 0.413597L1151.5 16.4136" stroke="#666666"/>
<path d="M1195.5 0.413597L1195.5 16.4136" stroke="#666666"/>
<path d="M1240.5 0.413597L1240.5 16.4136" stroke="#666666"/>
<path d="M1284.15 0.413597L1284.15 16.4136" stroke="#666666"/>
<path d="M1329.15 0.413597L1329.15 16.4136" stroke="#666666"/>
<path d="M1373.15 0.413597L1373.15 16.4136" stroke="#666666"/>
<path d="M1417.5 0.413597L1417.5 16.4136" stroke="#666666"/>
<path d="M1461.5 0.413597L1461.5 16.4136" stroke="#666666"/>
<path d="M620.5 0L620.5 16" stroke="#666666"/>
<path d="M664.5 0L664.5 16" stroke="#666666"/>
<path d="M709.262 0L709.262 16" stroke="#666666"/>
<path d="M753.152 0L753.152 16" stroke="#666666"/>
</svg>
