<svg width="16" height="975" viewBox="0 0 16 975" fill="none" xmlns="http://www.w3.org/2000/svg">
<path d="M2.088 18.7187H3.08L5.128 24.3187H4.024L3.568 23.0787H1.6L1.144 24.3187H0.04L2.088 18.7187ZM3.328 22.1827L2.584 20.0547H2.568L1.848 22.1827H3.328Z" fill="#555555"/>
<path d="M0.52 63.0522H4.032L4.832 63.8522V65.4202L4.512 65.7482L5.08 66.3242V67.7882L4.216 68.6522H0.52V63.0522ZM3.472 65.3962L3.76 65.1082V64.2442L3.48 63.9642H1.584V65.3962H3.472ZM3.664 67.7402L4.008 67.3962V66.6122L3.664 66.2682H1.584V67.7402H3.664Z" fill="#555555"/>
<path d="M0.44 114.196V110.436L1.36 109.516H4.096L5 110.42V111.276H3.912V110.82L3.536 110.444H1.936L1.528 110.852V113.78L1.936 114.188H3.536L3.912 113.812V113.356H5V114.212L4.096 115.116H1.36L0.44 114.196Z" fill="#555555"/>
<path d="M0.52 151.052H4.104L5.064 152.012V155.692L4.104 156.652H0.52V151.052ZM3.568 155.724L3.976 155.316V152.388L3.568 151.98H1.608V155.724H3.568Z" fill="#555555"/>
<path d="M0.52 196.939H4.568V197.859H1.608V199.275H4.336V200.179H1.608V201.619H4.568V202.539H0.52V196.939Z" fill="#555555"/>
<path d="M0.52 240.052H4.488V240.972H1.608V242.524H4.104V243.444H1.608V245.652H0.52V240.052Z" fill="#555555"/>
<path d="M0.44 288.565V284.805L1.36 283.885H4.144L5.048 284.789V285.645H3.96V285.189L3.584 284.813H1.936L1.528 285.221V288.149L1.936 288.557H3.6L3.992 288.165V287.293H2.792V286.365H5.048V288.565L4.128 289.485H1.36L0.44 288.565Z" fill="#555555"/>
<path d="M0.52 324.639H1.608V326.983H3.976V324.639H5.064V330.239H3.976V327.911H1.608V330.239H0.52V324.639Z" fill="#555555"/>
<path d="M0.56 373.052H1.648V378.652H0.56V373.052Z" fill="#555555"/>
<path d="M0.16 422.793V421.753H1.216V422.425L1.624 422.833H2.688L3.072 422.457V418.161H4.16V422.825L3.224 423.761H1.12L0.16 422.793Z" fill="#555555"/>
<path d="M0.52 462.161H1.608V464.505H2.456L3.808 462.161H5.032L3.392 464.953L5.168 467.761H3.92L2.448 465.433H1.608V467.761H0.52V462.161Z" fill="#555555"/>
<path d="M0.52 507.161H1.608V511.841H4.408V512.761H0.52V507.161Z" fill="#555555"/>
<path d="M0.52 550.052H1.528L3.192 553.668H3.208L4.88 550.052H5.888V555.652H4.84V552.244H4.824L3.536 554.868H2.864L1.584 552.244H1.568V555.652H0.52V550.052Z" fill="#555555"/>
<path d="M0.52 595.161H1.496L3.992 598.961H4.008V595.161H5.056V600.761H4.08L1.584 596.969H1.568V600.761H0.52V595.161Z" fill="#555555"/>
<path d="M0.44 645.45V641.69L1.36 640.77H4.24L5.16 641.69V645.45L4.24 646.37H1.36L0.44 645.45ZM3.664 645.442L4.072 645.034V642.106L3.664 641.698H1.936L1.528 642.106V645.034L1.936 645.442H3.664Z" fill="#555555"/>
<path d="M0.52 683.052H4.032L4.888 683.916V685.876L4.024 686.748H1.608V688.652H0.52V683.052ZM3.536 685.836L3.816 685.556V684.244L3.536 683.964H1.608V685.836H3.536Z" fill="#555555"/>
<path d="M5.328 734.383L4.656 735.055L3.528 733.935H1.36L0.44 733.015V729.255L1.36 728.335H4.24L5.16 729.255V733.015L4.568 733.607L5.328 734.383ZM3.664 733.007L4.072 732.599V729.671L3.664 729.263H1.936L1.528 729.671V732.599L1.936 733.007H3.664Z" fill="#555555"/>
<path d="M4.92 774.796V776.652H3.832V775.044L3.352 774.508H1.608V776.652H0.52V771.052H4.032L4.888 771.916V773.612L4.344 774.164L4.92 774.796ZM1.608 773.612H3.536L3.816 773.332V772.244L3.536 771.964H1.608V773.612Z" fill="#555555"/>
<path d="M0.4 820.542V819.742H1.472V820.214L1.736 820.478H3.392L3.664 820.206V819.278L3.4 819.014H1.28L0.416 818.15V816.67L1.28 815.806H3.808L4.672 816.67V817.478H3.6V816.998L3.336 816.734H1.752L1.488 816.998V817.822L1.752 818.086H3.872L4.736 818.95V820.526L3.856 821.406H1.264L0.4 820.542Z" fill="#555555"/>
<path d="M1.792 861.074H0.12V860.154H4.552V861.074H2.88V865.754H1.792V861.074Z" fill="#555555"/>
<path d="M0.52 909.801V905.161H1.608V909.425L2.016 909.833H3.584L3.992 909.425V905.161H5.08V909.801L4.12 910.761H1.48L0.52 909.801Z" fill="#555555"/>
<path d="M0.08 950.559H1.2L2.592 954.863H2.608L4 950.559H5.12L3.128 956.159H2.072L0.08 950.559Z" fill="#555555"/>
<path d="M0 0.499999L16 0.500001" stroke="#666666"/>
<path d="M0 43.9783L16 43.9783" stroke="#666666"/>
<path d="M0 88.9348L16 88.9348" stroke="#666666"/>
<path d="M0 132.935L16 132.935" stroke="#666666"/>
<path d="M0 177.587L16 177.587" stroke="#666666"/>
<path d="M0 221.587L16 221.587" stroke="#666666"/>
<path d="M0 265.587L16 265.587" stroke="#666666"/>
<path d="M0 309.935L16 309.935" stroke="#666666"/>
<path d="M0 354.587L16 354.587" stroke="#666666"/>
<path d="M0 398.935L16 398.935" stroke="#666666"/>
<path d="M0 442.587L16 442.587" stroke="#666666"/>
<path d="M0 487.587L16 487.587" stroke="#666666"/>
<path d="M0 531.732L16 531.732" stroke="#666666"/>
<path d="M0 575.587L16 575.587" stroke="#666666"/>
<path d="M0 622.152L16 622.152" stroke="#666666"/>
<path d="M0 664.587L16 664.587" stroke="#666666"/>
<path d="M0 708.935L16 708.935" stroke="#666666"/>
<path d="M0 752.935L16 752.935" stroke="#666666"/>
<path d="M0 797.587L16 797.587" stroke="#666666"/>
<path d="M0 841.935L16 841.935" stroke="#666666"/>
<path d="M0 885.587L16 885.587" stroke="#666666"/>
<path d="M0 929.935L16 929.935" stroke="#666666"/>
<path d="M0 973.978L16 973.978" stroke="#666666"/>
</svg>
