<svg width="227" height="64" viewBox="0 0 227 64" fill="none" xmlns="http://www.w3.org/2000/svg">
<path d="M0.481323 52.0981C3.48132 46.7648 6.48132 46.7648 9.48132 52.0981C12.4813 57.4314 15.4813 57.4314 18.4813 52.0981C21.4813 46.7648 24.4813 46.7648 27.4813 52.0981C30.4813 57.4314 33.4813 57.4314 36.4813 52.0981C39.4813 46.7648 42.4813 46.7648 45.4813 52.0981C48.4813 57.4314 51.4813 57.4314 54.4813 52.0981C57.4813 46.7648 60.4813 46.7648 63.4813 52.0981C66.4813 57.4314 69.4813 57.4314 72.4813 52.0981C75.4813 46.7648 78.4813 46.7648 81.4813 52.0981C84.4813 57.4314 87.4813 57.4314 90.4813 52.0981" stroke="white"/>
<path d="M0.481323 52.0981C1.98132 46.7648 3.48132 46.7648 4.98132 52.0981C6.48132 57.4314 7.98132 57.4314 9.48132 52.0981C10.9813 46.7648 12.4813 46.7648 13.9813 52.0981C15.4813 57.4314 16.9813 57.4314 18.4813 52.0981C19.9813 46.7648 21.4813 46.7648 22.9813 52.0981C24.4813 57.4314 25.9813 57.4314 27.4813 52.0981C28.9813 46.7648 30.4813 46.7648 31.9813 52.0981C33.4813 57.4314 34.9813 57.4314 36.4813 52.0981C37.9813 46.7648 39.4813 46.7648 40.9813 52.0981C42.4813 57.4314 43.9813 57.4314 45.4813 52.0981C46.9813 46.7648 48.4813 46.7648 49.9813 52.0981C51.4813 57.4314 52.9813 57.4314 54.4813 52.0981C55.9813 46.7648 57.4813 46.7648 58.9813 52.0981C60.4813 57.4314 61.9813 57.4314 63.4813 52.0981C64.9813 46.7648 66.4813 46.7648 67.9813 52.0981C69.4813 57.4314 70.9813 57.4314 72.4813 52.0981C73.9813 46.7648 75.4813 46.7648 76.9813 52.0981C78.4813 57.4314 79.9813 57.4314 81.4813 52.0981C82.9813 46.7648 84.4813 46.7648 85.9813 52.0981C87.4813 57.4314 88.9813 57.4314 90.4813 52.0981" stroke="#2FED33"/>
<path d="M1.25132 17.6561V16.4241H2.84732V17.1661L3.37932 17.6981H6.43132L6.99132 17.1381V15.3321L6.44532 14.7861H2.72132L1.27932 13.3581V10.7401L2.72132 9.29808H7.03332L8.47532 10.7401V11.9861H6.87932V11.2301L6.33332 10.6981H3.42132L2.87532 11.2301V12.8541L3.42132 13.3861H7.14532L8.58732 14.8281V17.6281L7.11732 19.0981H2.69332L1.25132 17.6561ZM12.7086 9.29808H14.2486L17.7906 19.0981H16.1386L15.2986 16.7741H11.6446L10.8046 19.0981H9.15257L12.7086 9.29808ZM14.9206 15.4161L13.4786 11.2721H13.4506L12.0366 15.4161H14.9206ZM19.8888 10.6841H16.9488V9.29808H24.4528V10.6841H21.5128V19.0981H19.8888V10.6841ZM25.3702 17.5161V10.8801L26.9522 9.29808H31.5442L33.0982 10.8521V12.1401H31.4742V11.4261L30.7322 10.6981H27.7922L26.9942 11.4821V16.9141L27.7922 17.6981H30.7322L31.4742 16.9701V16.2561H33.0982V17.5441L31.5442 19.0981H26.9522L25.3702 17.5161ZM34.4346 17.5161V10.8801L36.0166 9.29808H40.8606L42.4426 10.8801V17.5161L40.8606 19.0981H36.0166L34.4346 17.5161ZM40.0206 17.6981L40.8186 16.9141V11.4821L40.0206 10.6981H36.8566L36.0586 11.4821V16.9141L36.8566 17.6981H40.0206ZM44.268 9.29808H45.822L48.818 16.0461H48.846L51.842 9.29808H53.41V19.0981H51.856V12.5461H51.828L49.364 17.8521H48.3L45.85 12.5461H45.822V19.0981H44.268V9.29808ZM60.6293 11.0201L58.4873 12.1261V10.6281L60.9093 9.29808H62.2533V19.0981H60.6293V11.0201ZM63.9336 14.8281H68.5816V16.2001H63.9336V14.8281ZM69.9798 17.6561V14.9261L70.8618 14.0441L70.1198 13.3021V10.7401L71.5618 9.29808H75.6778L77.1198 10.7401V13.3021L76.3778 14.0441L77.2598 14.9261V17.6561L75.8178 19.0981H71.4218L69.9798 17.6561ZM74.9358 13.4421L75.4958 12.8821V11.2581L74.9358 10.6981H72.3038L71.7438 11.2581V12.8821L72.3038 13.4421H74.9358ZM75.0758 17.6981L75.6358 17.1381V15.3601L75.0758 14.8141H72.1638L71.6038 15.3601V17.1381L72.1638 17.6981H75.0758ZM83.1242 10.9641V10.6981H78.1682V9.29808H84.8042V11.0061L80.8982 19.0981H79.1902L83.1242 10.9641Z" fill="#CCCCCC"/>
<path d="M1.68132 37.4181V29.5781L3.36132 27.8981H8.03332L9.64932 29.5141V30.3621H8.72132V29.8021L7.63332 28.7301H3.77732L2.60932 29.8821V37.0981L3.77732 38.2661H7.63332L8.72132 37.1941V36.6341H9.64932V37.4821L8.03332 39.0981H3.36132L1.68132 37.4181ZM11.6501 37.4181V29.5781L13.3301 27.8981H18.2581L19.9381 29.5781V37.4181L18.2581 39.0981H13.3301L11.6501 37.4181ZM17.8421 38.2661L19.0101 37.0981V29.8821L17.8421 28.7301H13.7461L12.5781 29.8821V37.0981L13.7461 38.2661H17.8421ZM22.4976 27.8981H23.4256L29.5056 37.5781H29.5376V27.8981H30.4176V39.0981H29.4896L23.4096 29.4021H23.3776V39.0981H22.4976V27.8981ZM33.1382 27.8981H34.0662L40.1462 37.5781H40.1782V27.8981H41.0582V39.0981H40.1302L34.0502 29.4021H34.0182V39.0981H33.1382V27.8981ZM43.7788 27.8981H50.7228V28.7301H44.7068V33.0501H50.2588V33.8821H44.7068V38.2661H50.7228V39.0981H43.7788V27.8981ZM52.8063 37.4181V29.5781L54.4863 27.8981H59.1583L60.7743 29.5141V30.3621H59.8463V29.8021L58.7583 28.7301H54.9023L53.7343 29.8821V37.0981L54.9023 38.2661H58.7583L59.8463 37.1941V36.6341H60.7743V37.4821L59.1583 39.0981H54.4863L52.8063 37.4181ZM65.4489 28.7141H62.0569V27.8981H69.7689V28.7141H66.3769V39.0981H65.4489V28.7141ZM71.6851 27.8981H78.6291V28.7301H72.6131V33.0501H78.1651V33.8821H72.6131V38.2661H78.6291V39.0981H71.6851V27.8981ZM80.8726 27.8981H87.1286L88.8086 29.5781V37.4181L87.1286 39.0981H80.8726V27.8981ZM86.7126 38.2661L87.8806 37.0981V29.8821L86.7126 28.7301H81.8006V38.2661H86.7126Z" fill="#2FED33"/>
<path d="M203.523 51.8998L210.476 55.2905V55.2914L210.258 55.7407L210.692 55.9526C210.858 56.0336 211.013 56.122 211.155 56.2172L211.432 55.8012C214.427 57.8 213.324 62.5738 209.756 63.0571L209.69 62.5629C209.52 62.586 209.343 62.5981 209.158 62.5981H208.644V63.0981H200.428V62.5981H199.401V63.0981H191.184V62.5981H190.158V63.0981H181.941V62.5981H180.914V63.0981H172.698V62.5981H171.671V63.0981H163.455V62.5981H162.428V63.0981H154.212V62.5981H153.184V63.0981H144.968V62.5981H143.941V63.0981H135.724V62.5981H134.698V63.0981H126.481V62.5981H125.454V63.0981H117.238V62.5981H116.211V63.0981H107.995V62.5981H107.481C107.378 62.5981 107.276 62.5941 107.176 62.5854L107.133 63.0815C105.201 62.9147 103.663 61.3771 103.497 59.4457L103.994 59.4037C103.985 59.3031 103.981 59.2012 103.981 59.0981V58.6391H103.481V51.2914H103.981V50.3725H103.481V43.0248H103.981V42.1059H103.481V34.7582H103.981V33.8393H103.481V26.4916H103.981V25.5737H103.481V18.225H103.981V17.3071H103.481V9.95941H103.981V9.49945C103.981 9.36486 103.989 9.23276 104.003 9.10394L103.507 9.05023C103.785 6.49936 106.404 4.86303 108.819 5.7309L108.651 6.19965C108.773 6.24346 108.895 6.29498 109.016 6.35394L109.45 6.56586L109.669 6.11664L116.622 9.50726V9.50824L116.402 9.95746L117.271 10.3813L117.491 9.93207V9.93109L124.443 13.3227V13.3237L124.224 13.7729L125.093 14.1967L125.312 13.7475V13.7465L132.264 17.1381L132.045 17.5883L132.914 18.0121L133.134 17.5629V17.562L140.085 20.9536L139.866 21.4028L140.735 21.8276L140.954 21.3774L147.906 24.769L147.687 25.2182L148.557 25.642L148.775 25.1928L155.727 28.5844H155.728L155.509 29.0336L156.378 29.4575L156.597 29.0082L163.549 32.3998H163.55L163.33 32.8491L164.199 33.2729L164.418 32.8237L171.371 36.2143V36.2153L171.151 36.6645L172.02 37.0883L172.239 36.6391L179.191 40.0297L178.973 40.4799L179.842 40.9037L180.059 40.4536L187.013 43.8452L186.794 44.2944L187.663 44.7182L187.881 44.269L194.834 47.6606L194.615 48.1098L195.484 48.5336L195.702 48.0844L202.655 51.476L202.436 51.9252L203.306 52.3491L203.523 51.8998Z" stroke="#2FED33" stroke-linejoin="round" stroke-dasharray="1 8"/>
<path d="M129.976 16.0229L149.498 25.5453L149.279 25.9946L150.093 26.392L150.312 25.9428V25.9418L169.833 35.4653H169.834L169.615 35.9145L170.429 36.312L170.646 35.8618L190.169 45.3852L189.95 45.8344L190.764 46.2309L190.982 45.7817L210.504 55.3041L210.285 55.7543L210.692 55.9526C210.751 55.9813 210.809 56.0108 210.865 56.0414L211.103 55.603C214.615 57.5247 213.373 62.9037 209.375 63.0922L209.351 62.5932C209.288 62.5962 209.223 62.5981 209.158 62.5981H208.649V63.0981H184.247V62.5981H183.23V63.0981H158.828V62.5981H157.811V63.0981H133.409V62.5981H132.392V63.0981H107.99V62.5981H107.481C107.444 62.5981 107.408 62.5973 107.371 62.5961L107.355 63.0942C105.246 63.0289 103.549 61.3325 103.484 59.2231L103.983 59.2084C103.982 59.1718 103.981 59.135 103.981 59.0981V58.602H103.481V34.7953H103.981V33.8032H103.481V9.99554H103.981V9.49945C103.981 9.45156 103.982 9.40404 103.984 9.35687L103.486 9.33734C103.595 6.52699 106.513 4.70396 109.087 5.83832L108.886 6.2934C108.929 6.31248 108.972 6.33289 109.016 6.35394L109.423 6.55219L109.641 6.10297V6.10199L129.164 15.6254V15.6264L128.944 16.0756L129.758 16.4721L129.976 16.0229Z" stroke="#2FED33" stroke-linejoin="round" stroke-dasharray="1 24"/>
<path d="M184.104 42.4272L191.5 46.0346L191.281 46.4838L193.13 47.3852L193.349 46.936L200.743 50.5434L200.524 50.9926L202.373 51.894L202.592 51.4448L209.986 55.0522L209.767 55.5014L210.692 55.9526C210.997 56.1014 211.262 56.2762 211.49 56.4702L211.813 56.0893C214.203 58.1225 213.264 62.1851 210.225 62.9653L210.102 62.4828C209.813 62.5573 209.498 62.5981 209.158 62.5981H208.141V63.0981H200.007V62.5981H197.974V63.0981H189.839V62.5981H187.806V63.0981H179.672V62.5981H177.638V63.0981H169.504V62.5981H167.471V63.0981H159.336V62.5981H157.303V63.0981H149.169V62.5981H147.135V63.0981H139.001V62.5981H136.968V63.0981H128.833V62.5981H126.8V63.0981H118.666V62.5981H116.633V63.0981H108.498V62.5981H107.481C107.295 62.5981 107.112 62.5831 106.933 62.5551L106.855 63.0483C105.147 62.7798 103.798 61.4313 103.53 59.7231L104.024 59.6459C103.996 59.4677 103.981 59.2848 103.981 59.0981V58.1059H103.481V50.1703H103.981V48.187H103.481V40.2504H103.981V38.267H103.481V30.3315H103.981V28.3471H103.481V20.4116H103.981V18.4272H103.481V10.4916H103.981V9.49945C103.981 9.25461 104.005 9.0188 104.051 8.7934L103.56 8.69476C104.008 6.46664 106.277 5.0485 108.475 5.6225L108.35 6.10687C108.573 6.16503 108.795 6.24662 109.016 6.35394L109.94 6.80511L110.159 6.3559V6.35492L117.553 9.96234H117.554L117.335 10.4125L119.183 11.3139L119.402 10.8647V10.8637L126.798 14.4711V14.4721L126.578 14.9213L128.427 15.8227L128.645 15.3735L136.041 18.9799V18.9809L135.821 19.4301L137.67 20.3315L137.889 19.8823L145.283 23.4897H145.284L145.064 23.9389L146.913 24.8412L147.132 24.3911L154.526 27.9985H154.527L154.308 28.4477L156.157 29.35L156.375 28.8998L163.769 32.5073L163.552 32.9565L165.4 33.8588L165.619 33.4096V33.4086L173.013 37.0161L172.795 37.4662L174.643 38.3676L174.862 37.9184V37.9174L182.256 41.5248L182.038 41.975L183.887 42.8764L184.104 42.4272Z" stroke="#2FED33" stroke-linejoin="round" stroke-dasharray="2 8"/>
<path d="M189.597 51.3871L196.683 55.3598V55.3608L196.438 55.7973L196.882 56.0453C197.039 56.1335 197.184 56.2288 197.318 56.3295L197.618 55.9291C200.42 58.0329 199.228 62.595 195.755 63.059L195.689 62.5639C195.523 62.5861 195.35 62.5981 195.17 62.5981H194.682V63.0981H186.888V62.5981H185.914V63.0981H178.119V62.5981H177.144V63.0981H169.35V62.5981H168.376V63.0981H160.582V62.5981H159.607V63.0981H151.812V62.5981H150.839V63.0981H143.044V62.5981H142.069V63.0981H134.275V62.5981H133.301V63.0981H125.506V62.5981H124.532V63.0981H116.737V62.5981H115.763V63.0981H107.969V62.5981H107.481C107.378 62.5981 107.276 62.5941 107.176 62.5854L107.133 63.0815C105.201 62.9147 103.663 61.3771 103.497 59.4457L103.994 59.4037C103.985 59.3031 103.981 59.2012 103.981 59.0981V58.5522H103.481V49.81H103.981V48.7172H103.481V39.976H103.981V38.8832H103.481V30.142H103.981V29.0493H103.481V20.308H103.981V19.2153H103.481V10.4731H103.981V9.92719C103.981 9.78835 103.989 9.65243 104.004 9.51996L103.509 9.46429C103.803 6.83238 106.58 5.20623 109.019 6.23578L108.827 6.69476C108.95 6.74663 109.072 6.80655 109.193 6.87445L109.636 7.1225L109.88 6.68597L116.966 10.6596L116.722 11.0961L117.607 11.5922L117.852 11.1567V11.1557L124.938 15.1293V15.1303L124.693 15.5659L125.579 16.0629L125.823 15.6264L132.909 19.6H132.91L132.665 20.0366L133.551 20.5327L133.796 20.0971V20.0961L140.881 24.0698L140.637 24.5063L141.522 25.0034L141.766 24.5668L148.853 28.5395V28.5405L148.608 28.976L149.494 29.4731L149.738 29.0366L156.824 33.0102H156.825L156.58 33.4467L157.466 33.9428L157.711 33.5073V33.5063L164.797 37.4799V37.4809L164.552 37.9164L165.437 38.4135L165.682 37.977L172.768 41.9496V41.9506L172.523 42.3862L173.409 42.8832L173.654 42.4477V42.4467L180.739 46.4203H180.74L180.495 46.8569L181.381 47.353L181.626 46.9174V46.9164L188.712 50.8901V50.8911L188.467 51.3266L189.352 51.8237L189.597 51.3871Z" stroke="#2FED33" stroke-linejoin="round" stroke-dasharray="1 8"/>
<path d="M175.641 43.562L196.687 55.3627V55.3637L196.443 55.7993L196.882 56.0453C196.938 56.0766 196.992 56.1091 197.045 56.142L197.308 55.7172C200.609 57.7752 199.267 62.9114 195.382 63.0922L195.359 62.5942C195.297 62.5971 195.234 62.5981 195.17 62.5981H194.731V63.0981H173.686V62.5981H172.809V63.0981H151.764V62.5981H150.887V63.0981H129.842V62.5981H128.965V63.0981H107.92V62.5981H107.481C107.444 62.5981 107.408 62.5973 107.371 62.5961L107.355 63.0942C105.246 63.0289 103.549 61.3325 103.484 59.2231L103.983 59.2084C103.982 59.1718 103.981 59.135 103.981 59.0981V58.6059H103.481V35.0043H103.981V34.0209H103.481V10.4184H103.981V9.92719C103.981 9.87768 103.982 9.82843 103.984 9.77972L103.486 9.75922C103.602 6.85606 106.699 5.04209 109.288 6.36078L109.063 6.80414C109.107 6.8263 109.15 6.85021 109.193 6.87445L109.632 7.12054L109.876 6.68402V6.68304L130.921 18.4848L130.677 18.9213L131.554 19.4125L131.799 18.977V18.976L152.843 30.7778H152.844L152.599 31.2143L153.475 31.7055L153.721 31.27V31.269L174.766 43.0698V43.0707L174.521 43.5063L175.398 43.9985L175.641 43.562Z" stroke="#2FED33" stroke-linejoin="round" stroke-dasharray="1 24"/>
<path d="M162.927 36.4321L169.941 40.3657H169.942L169.698 40.8022L171.452 41.7856L171.696 41.35V41.3491L178.712 45.2827V45.2836L178.467 45.7192L180.221 46.7026L180.466 46.267V46.2661L187.48 50.1996V50.2006L187.236 50.6362L188.989 51.6196L189.234 51.184V51.183L196.249 55.1166V55.1176L196.005 55.5532L196.882 56.0453C197.17 56.2071 197.42 56.3924 197.633 56.5942L197.975 56.2309C200.196 58.3341 199.18 62.2213 196.215 62.9702L196.093 62.4868C195.808 62.5586 195.5 62.5981 195.17 62.5981H194.195V63.0981H186.401V62.5981H184.452V63.0981H176.658V62.5981H174.709V63.0981H166.915V62.5981H164.966V63.0981H157.172V62.5981H155.223V63.0981H147.429V62.5981H145.479V63.0981H137.685V62.5981H135.736V63.0981H127.942V62.5981H125.993V63.0981H118.199V62.5981H116.25V63.0981H108.456V62.5981H107.481C107.295 62.5981 107.112 62.5831 106.933 62.5551L106.855 63.0483C105.147 62.7798 103.798 61.4313 103.53 59.7231L104.024 59.6459C103.996 59.4677 103.981 59.2848 103.981 59.0981V58.1147H103.481V50.2475H103.981V48.2807H103.481V40.4135H103.981V38.4467H103.481V30.5786H103.981V28.6118H103.481V20.7446H103.981V18.7778H103.481V10.9106H103.981V9.92719C103.981 9.6746 104.007 9.43188 104.055 9.20062L103.564 9.09906C104.038 6.80364 106.441 5.39601 108.675 6.1059L108.523 6.58246C108.748 6.65403 108.973 6.75084 109.193 6.87445L110.07 7.36566L110.314 6.93011V6.92914L117.33 10.8627V10.8637L117.085 11.2993L118.839 12.2827L119.083 11.8471L126.099 15.7797V15.7807L125.854 16.2162L127.607 17.2006L127.852 16.7641V16.7631L134.867 20.6967V20.6977L134.623 21.1342L136.377 22.1176L136.621 21.6811V21.6801L143.636 25.6147L143.391 26.0512L145.145 27.0346L145.39 26.5981V26.5971L152.404 30.5317H152.405L152.16 30.9682L153.914 31.9516L154.158 31.5151L161.173 35.4487H161.174L160.93 35.8852L162.683 36.8686L162.927 36.4321Z" stroke="#2FED33" stroke-linejoin="round" stroke-dasharray="2 8"/>
<path d="M139.558 26.8852L146.107 31.2026V31.2036L145.832 31.6205L146.65 32.1606L146.926 31.7426V31.7416L153.474 36.059V36.06L153.199 36.478L154.017 37.017L154.293 36.6V36.5991L160.841 40.9164V40.9174L160.565 41.3344L161.384 41.8745L161.659 41.4575V41.4565L168.207 45.7739V45.7748L167.932 46.1918L168.751 46.7319L169.025 46.3139V46.3129L175.573 50.6313H175.574L175.299 51.0493L176.117 51.5883L176.392 51.1713V51.1703L182.94 55.4877V55.4887L182.665 55.9067L183.075 56.1762C183.221 56.2722 183.355 56.3741 183.478 56.4809L183.803 56.1049C186.362 58.3201 185.073 62.6165 181.717 63.0571L181.653 62.5659C181.491 62.5871 181.323 62.5981 181.148 62.5981H180.637V63.0981H172.451V62.5981H171.428V63.0981H163.243V62.5981H162.22V63.0981H154.035V62.5981H153.012V63.0981H144.826V62.5981H143.803V63.0981H135.618V62.5981H134.595V63.0981H126.41V62.5981H125.387V63.0981H117.201V62.5981H116.178V63.0981H107.993V62.5981H107.481C107.378 62.5981 107.276 62.5941 107.176 62.5854L107.133 63.0815C105.201 62.9147 103.663 61.3771 103.497 59.4457L103.994 59.4037C103.985 59.3031 103.981 59.2012 103.981 59.0981V58.558H103.481V49.9233H103.981V48.8442H103.481V40.2094H103.981V39.1303H103.481V30.4946H103.981V29.4155H103.481V20.7807H103.981V19.7016H103.481V11.0659H103.981V10.5268C103.981 10.3828 103.99 10.2418 104.006 10.1049L103.51 10.0483C103.825 7.31179 106.809 5.70467 109.267 6.94769L109.043 7.39301C109.166 7.45519 109.288 7.52567 109.408 7.60492L109.817 7.87445L110.093 7.45746V7.45648L116.641 11.7739V11.7748L116.365 12.1918L117.183 12.7319L117.459 12.3139V12.3129L124.007 16.6313H124.008L123.732 17.0493L124.551 17.5883L124.826 17.1713V17.1703L131.374 21.4877V21.4887L131.099 21.9067L131.917 22.4457L132.192 22.0287V22.0278L138.74 26.3452V26.3461L138.466 26.7631L139.284 27.3032L139.558 26.8852Z" stroke="#2FED33" stroke-linejoin="round" stroke-dasharray="1 8"/>
<path d="M128.468 19.5727L146.148 31.2289V31.2299L145.873 31.6479L146.609 32.1332L146.885 31.7162V31.7153L164.564 43.3725L164.29 43.7905L165.026 44.2758L165.302 43.8588V43.8578L182.981 55.5151V55.5161L182.706 55.933L183.075 56.1762C183.127 56.2102 183.177 56.2452 183.225 56.2807L183.519 55.8764V55.8754C186.553 58.0813 185.101 62.921 181.353 63.0922L181.332 62.5942C181.272 62.597 181.21 62.5981 181.148 62.5981H180.657V63.0981H157.084V62.5981H156.101V63.0981H132.528V62.5981H131.546V63.0981H107.973V62.5981H107.481C107.444 62.5981 107.408 62.5973 107.371 62.5961L107.355 63.0942C105.246 63.0289 103.549 61.3325 103.484 59.2231L103.983 59.2084C103.982 59.1718 103.981 59.135 103.981 59.0981V58.6127H103.481V35.2983H103.981V34.3266H103.481V11.0121H103.981V10.5268C103.981 10.4754 103.982 10.424 103.984 10.3735L103.486 10.353C103.61 7.33002 106.943 5.53539 109.535 7.09613L109.278 7.52289C109.322 7.54897 109.365 7.57662 109.408 7.60492L109.776 7.84711L110.052 7.43011V7.42914L127.731 19.0864V19.0873L127.456 19.5043L128.193 19.9907L128.468 19.5727Z" stroke="#2FED33" stroke-linejoin="round" stroke-dasharray="1 24"/>
<path d="M103.57 9.67035C104.077 7.28998 106.654 5.90177 108.92 6.78949V6.79047L108.737 7.25531C108.964 7.34427 109.189 7.46046 109.408 7.60492L110.226 8.14398L110.502 7.72699V7.72601L117.05 12.0434V12.0444L116.774 12.4614L118.412 13.5414L118.686 13.1235V13.1225L125.234 17.4409H125.235L124.96 17.8588L126.597 18.9379L126.872 18.5209V18.52L133.42 22.8373V22.8383L133.145 23.2553L134.782 24.3344L135.057 23.9174V23.9164L141.605 28.2338V28.2348L141.33 28.6518L142.968 29.7319L143.242 29.3139V29.3129L149.79 33.6313H149.791L149.516 34.0493L151.152 35.1284L151.428 34.7114V34.7104L157.975 39.0278V39.0287L157.7 39.4457L159.338 40.5248L159.613 40.1078V40.1069L166.161 44.4243V44.4252L165.886 44.8432L167.522 45.9223L167.798 45.5043V45.5034L174.346 49.8217L174.071 50.2397L175.708 51.3188L175.983 50.9018V50.9008L182.531 55.2182V55.2192L182.256 55.6362L183.075 56.1762C183.342 56.3522 183.571 56.5483 183.765 56.7582L184.131 56.4203C186.139 58.5952 185.038 62.2662 182.164 62.976L182.045 62.4916C181.767 62.5602 181.468 62.5981 181.148 62.5981H180.096V63.0981H171.677V62.5981H169.572V63.0981H161.153V62.5981H159.048V63.0981H150.629V62.5981H148.524V63.0981H140.105V62.5981H138.001V63.0981H129.581V62.5981H127.476V63.0981H119.057V62.5981H116.953V63.0981H108.534V62.5981H107.481C107.295 62.5981 107.112 62.5831 106.933 62.5551L106.855 63.0483C105.147 62.7798 103.798 61.4313 103.53 59.7231L104.024 59.6459C103.996 59.4677 103.981 59.2848 103.981 59.0981V58.1264H103.481V50.3549H103.981V48.4125H103.481V40.6411H103.981V38.6977H103.481V30.9262H103.981V28.9838H103.481V21.2123H103.981V19.27H103.481V11.4985H103.981V10.5268C103.981 10.2645 104.009 10.0133 104.059 9.77484L103.57 9.67035Z" stroke="#2FED33" stroke-linejoin="round" stroke-dasharray="2 8"/>
<path d="M132.742 26.5073L139.364 31.8051H139.365L139.053 32.1948L139.88 32.8578L140.192 32.4672V32.4662L146.813 37.7641L146.502 38.1547L147.33 38.8168L147.641 38.4262L154.263 43.7241H154.264L153.952 44.1147L154.779 44.7768L155.091 44.3862L161.713 49.684H161.714L161.401 50.0746L162.229 50.7368L162.541 50.3461V50.3452L169.163 55.643V55.644L168.85 56.0336L169.265 56.3647C169.395 56.4692 169.515 56.5787 169.625 56.6918L169.981 56.3461C172.232 58.6722 170.836 62.6495 167.626 63.06L167.563 62.5678C167.407 62.5878 167.245 62.5981 167.078 62.5981H166.605V63.0981H159.037V62.5981H158.092V63.0981H150.523V62.5981H149.578V63.0981H142.01V62.5981H141.063V63.0981H133.496V62.5981H132.55V63.0981H124.982V62.5981H124.036V63.0981H116.469V62.5981H115.522V63.0981H107.954V62.5981H107.481C107.378 62.5981 107.276 62.5941 107.176 62.5854L107.133 63.0815C105.201 62.9147 103.663 61.3771 103.497 59.4457L103.994 59.4037C103.985 59.3031 103.981 59.2012 103.981 59.0981V58.5688H103.481V50.0922H103.981V49.0327H103.481V40.5571H103.981V39.4975H103.481V31.0209H103.981V29.9614H103.481V21.4858H103.981V20.4262H103.481V11.9506H103.981V11.4203C103.981 11.2698 103.99 11.1232 104.007 10.9809L103.513 10.9213C103.855 8.05014 107.114 6.48337 109.57 8.00922L109.307 8.43304C109.429 8.50884 109.55 8.59374 109.668 8.68793L110.082 9.01898L110.393 8.62836L117.015 13.9252H117.016L116.704 14.3159L117.531 14.978L117.844 14.5883V14.5873L124.465 19.8852L124.153 20.2758L124.981 20.9379L125.292 20.5473L131.915 25.8442V25.8452L131.602 26.2358L132.431 26.8979L132.742 26.5073Z" stroke="#2FED33" stroke-linejoin="round" stroke-dasharray="1 8"/>
<path d="M150.107 40.3998L169.179 55.6567H169.18L168.867 56.0473L169.265 56.3647C169.311 56.4019 169.356 56.4406 169.4 56.4789L169.726 56.1039C172.419 58.4621 170.851 62.9303 167.276 63.0903L167.255 62.5942C167.197 62.5968 167.138 62.5981 167.078 62.5981H166.482V63.0981H137.876V62.5981H136.683V63.0981H108.077V62.5981H107.481C107.444 62.5981 107.408 62.5973 107.371 62.5961L107.355 63.0942C105.246 63.0289 103.549 61.3325 103.484 59.2231L103.983 59.2084C103.982 59.1718 103.981 59.135 103.981 59.0981V58.6215H103.481V35.7358H103.981V34.7827H103.481V11.8969H103.981V11.4203C103.981 11.3668 103.982 11.3137 103.984 11.2612L103.487 11.2397C103.621 8.06019 107.268 6.30742 109.835 8.1889L109.541 8.59027C109.583 8.62148 109.626 8.65434 109.668 8.68793L110.065 9.00531L110.377 8.61469L129.447 23.8715H129.448L129.136 24.2621L129.931 24.8979L130.242 24.5073L149.313 39.7641L149.002 40.1547L149.797 40.7905L150.107 40.3998Z" stroke="#2FED33" stroke-linejoin="round" stroke-dasharray="1 24"/>
<path d="M162.871 50.6108L168.831 55.3784L168.519 55.769L169.265 56.3647C169.504 56.5561 169.707 56.7644 169.877 56.9828L170.27 56.6752C172.013 58.9156 170.817 62.3215 168.057 62.9828L167.942 62.4985C167.673 62.563 167.384 62.5981 167.078 62.5981H166.085V63.0981H158.139V62.5981H156.152V63.0981H148.206V62.5981H146.22V63.0981H138.273V62.5981H136.286V63.0981H128.341V62.5981H126.353V63.0981H118.407V62.5981H116.421V63.0981H108.474V62.5981H107.481C107.295 62.5981 107.112 62.5831 106.933 62.5551L106.855 63.0483C105.147 62.7798 103.798 61.4313 103.53 59.7231L104.024 59.6459C103.996 59.4677 103.981 59.2848 103.981 59.0981V58.145H103.481V50.5161H103.981V48.6088H103.481V40.9809H103.981V39.0737H103.481V31.4448H103.981V29.5385H103.481V21.9096H103.981V20.0024H103.481V12.3745H103.981V11.4203C103.981 11.1455 104.011 10.8836 104.065 10.6362L103.577 10.5278C104.127 8.03807 106.936 6.68804 109.224 7.8139V7.81488L109.003 8.26312C109.23 8.37507 109.453 8.51618 109.668 8.68793L110.413 9.28363L110.724 8.89301L116.683 13.6606H116.684L116.372 14.0512L117.862 15.2436L118.175 14.853V14.852L124.134 19.6205H124.135L123.822 20.0112L125.312 21.2026L125.624 20.8129V20.812L131.584 25.5795V25.5805L131.271 25.9702L132.762 27.1625L133.073 26.7719L139.033 31.5395L138.722 31.9301L140.211 33.1225L140.522 32.7319L146.482 37.4995L146.171 37.8901L147.661 39.0815L147.973 38.6918L153.932 43.4584V43.4594L153.62 43.85L155.11 45.0414L155.422 44.6508L161.382 49.4194H161.383L161.07 49.809L162.56 51.0014L162.871 50.6108Z" stroke="#2FED33" stroke-linejoin="round" stroke-dasharray="2 8"/>
<path d="M149.656 50.0561L155.429 55.9262L155.073 56.2768L155.433 56.644C155.545 56.7569 155.646 56.8736 155.737 56.9926L156.131 56.6889C157.987 59.1082 156.485 62.6901 153.459 63.0629L153.399 62.5698C153.251 62.5881 153.097 62.5981 152.938 62.5981H152.433V63.0981H144.351V62.5981H143.342V63.0981H135.261V62.5981H134.25V63.0981H126.169V62.5981H125.159V63.0981H117.078V62.5981H116.067V63.0981H107.986V62.5981H107.481C107.378 62.5981 107.276 62.5941 107.176 62.5854L107.133 63.0815C105.201 62.9147 103.663 61.3771 103.497 59.4457L103.994 59.4037C103.985 59.3031 103.981 59.2012 103.981 59.0981V58.5844H103.481V50.3666H103.981V49.3393H103.481V41.1205H103.981V40.0932H103.481V31.8754H103.981V30.8481H103.481V22.6303H103.981V21.603H103.481V13.3842H103.981V12.8705C103.981 12.7111 103.991 12.5564 104.01 12.4067L103.516 12.3452C103.895 9.29472 107.529 7.80695 109.938 9.71527L109.631 10.1059C109.749 10.1996 109.865 10.3028 109.976 10.4164L110.338 10.7836L110.694 10.433V10.4321L116.467 16.3022V16.3032L116.11 16.6537L116.832 17.3881L117.188 17.0375V17.0366L122.96 22.9067V22.9077L122.603 23.2582L123.325 23.9916L123.682 23.6411V23.6401L129.454 29.5102V29.5112L129.098 29.8618L129.819 30.5952L130.176 30.2446V30.2436L135.947 36.1147H135.948L135.592 36.4653L136.313 37.1996L136.67 36.8491V36.8481L142.441 42.7182V42.7192L142.085 43.0698L142.807 43.8032L143.163 43.4526V43.4516L148.935 49.3217V49.3227L148.579 49.6733L149.301 50.4067L149.656 50.0561Z" stroke="#2FED33" stroke-linejoin="round" stroke-dasharray="1 8"/>
<path d="M103.488 12.6801C103.636 9.29198 107.713 7.62351 110.194 9.935L109.856 10.2993C109.897 10.337 109.937 10.3761 109.976 10.4164L110.28 10.725L110.637 10.3745V10.3735L125.182 25.1664V25.1674L124.826 25.518L125.432 26.1342L125.789 25.7836V25.7827L140.335 40.5756V40.5766L139.978 40.9272L140.585 41.5434L140.941 41.1928V41.1918L155.487 55.9848V55.9858L155.131 56.3364L155.433 56.644C155.473 56.6842 155.512 56.725 155.549 56.7661L155.917 56.433C158.169 58.9305 156.486 62.9452 153.126 63.0903L153.105 62.5942C153.05 62.5966 152.995 62.5981 152.938 62.5981H152.483V63.0981H130.664V62.5981H129.755V63.0981H107.935V62.5981H107.481C107.444 62.5981 107.408 62.5973 107.371 62.5961L107.355 63.0942C105.246 63.0289 103.549 61.3325 103.484 59.2231L103.983 59.2084C103.982 59.1718 103.981 59.135 103.981 59.0981V58.6362H103.481V36.4467H103.981V35.5219H103.481V13.3334H103.981V12.8705C103.981 12.8138 103.983 12.7571 103.985 12.7016L103.488 12.6801Z" stroke="#2FED33" stroke-linejoin="round" stroke-dasharray="1 24"/>
<path d="M103.587 11.9311C104.196 9.29777 107.318 8.02 109.599 9.47015L109.331 9.89203C109.555 10.0347 109.772 10.2086 109.976 10.4164L110.734 11.187L111.091 10.8364V10.8354L117.152 16.9995V17.0004L116.796 17.351L118.31 18.892L118.667 18.5414V18.5405L124.727 24.7045H124.728L124.372 25.0551L125.887 26.5961L126.243 26.2455V26.2446L132.305 32.4086V32.4096L131.948 32.7602L133.463 34.3012L133.819 33.9506V33.9496L139.88 40.1137H139.881L139.523 40.4643L141.039 42.0053L141.395 41.6547V41.6537L147.456 47.8188H147.457L147.099 48.1694L148.615 49.7104L148.972 49.3598V49.3588L155.032 55.5219V55.5229L154.676 55.8735L155.433 56.644C155.636 56.8503 155.806 57.0683 155.944 57.2934L156.369 57.0317C157.774 59.3164 156.484 62.3935 153.87 62.9936L153.759 62.5073C153.501 62.5664 153.227 62.5981 152.938 62.5981H152.029V63.0981H144.756V62.5981H142.937V63.0981H135.665V62.5981H133.847V63.0981H126.573V62.5981H124.755V63.0981H117.481V62.5981H115.664V63.0981H108.391V62.5981H107.481C107.295 62.5981 107.112 62.5831 106.933 62.5551L106.855 63.0483C105.147 62.7798 103.798 61.4313 103.53 59.7231L104.024 59.6459C103.996 59.4677 103.981 59.2848 103.981 59.0981V58.1733H103.481V50.7768H103.981V48.9282H103.481V41.5317H103.981V39.683H103.481V32.2866H103.981V30.437H103.481V23.0405H103.981V21.1918H103.481V13.7953H103.981V12.8705C103.981 12.5789 104.014 12.3025 104.074 12.0434L103.587 11.9311Z" stroke="#2FED33" stroke-linejoin="round" stroke-dasharray="2 8"/>
<path d="M137.031 49.9125L141.656 56.3637V56.3647L141.249 56.6557L141.538 57.059C141.623 57.1783 141.701 57.2997 141.768 57.4223L142.203 57.1811C143.566 59.6422 141.974 62.741 139.18 63.0668L139.123 62.5737C138.984 62.5899 138.84 62.5981 138.693 62.5981H138.115V63.0981H128.867V62.5981H127.712V63.0981H118.464V62.5981H117.307V63.0981H108.059V62.5981H107.481C107.378 62.5981 107.276 62.5941 107.176 62.5854L107.133 63.0815C105.201 62.9147 103.663 61.3771 103.497 59.4457L103.994 59.4037C103.985 59.3031 103.981 59.2012 103.981 59.0981V58.6137H103.481V50.8715H103.981V49.9037H103.481V42.1616H103.981V41.1938H103.481V33.4506H103.981V32.4828H103.481V24.7407H103.981V23.7729H103.481V16.0297H103.981V15.5463C103.981 15.3748 103.992 15.2087 104.013 15.0493L103.52 14.9848C103.949 11.6925 108.108 10.3563 110.374 12.7827L110.012 13.1225C110.121 13.2399 110.226 13.3681 110.326 13.5073L110.615 13.9106L111.02 13.6196L115.645 20.0707V20.0717L115.239 20.3627L115.817 21.1694L116.224 20.8784V20.8774L120.848 27.3295V27.3305L120.441 27.6215L121.019 28.4282L121.426 28.1371V28.1362L126.05 34.5883V34.5893L125.643 34.8803L126.222 35.687L126.627 35.395L131.251 41.8471H131.252L130.846 42.1391L131.424 42.9448L131.829 42.6537L136.453 49.1059H136.454L136.048 49.3969L136.625 50.2036L137.031 49.9125Z" stroke="#2FED33" stroke-linejoin="round" stroke-dasharray="1 8"/>
<path d="M111.044 13.6518L126.026 34.5551V34.5561L125.62 34.8481L126.244 35.7192L126.65 35.4272L141.633 56.3315V56.3325L141.226 56.6235L141.538 57.059C141.568 57.1016 141.599 57.1449 141.627 57.1879L142.042 56.9145C143.738 59.5001 141.959 62.9641 138.869 63.0912L138.849 62.5952C138.798 62.5973 138.746 62.5981 138.693 62.5981H138.069V63.0981H108.105V62.5981H107.481C107.444 62.5981 107.408 62.5973 107.371 62.5961L107.355 63.0942C105.246 63.0289 103.549 61.3325 103.484 59.2231L103.983 59.2084C103.982 59.1718 103.981 59.135 103.981 59.0981V58.6625H103.481V37.7573H103.981V36.8862H103.481V15.9819H103.981V15.5463C103.981 15.4854 103.983 15.4251 103.985 15.3657L103.489 15.3422C103.657 11.6705 108.331 10.1688 110.606 13.0551L110.218 13.3627C110.254 13.4095 110.291 13.4577 110.326 13.5073L110.639 13.9428L111.044 13.6518Z" stroke="#2FED33" stroke-linejoin="round" stroke-dasharray="1 24"/>
<path d="M124.766 50.3989L127.755 57.0414H127.756L127.3 57.2465L127.487 57.6616C127.542 57.7824 127.588 57.9044 127.628 58.0258L128.1 57.8705C128.883 60.2678 127.245 62.8019 124.737 63.0717L124.684 62.5776C124.557 62.5913 124.427 62.5981 124.295 62.5981H123.828V63.0981H116.355V62.5981H115.421V63.0981H107.948V62.5981H107.481C107.378 62.5981 107.276 62.5941 107.176 62.5854L107.133 63.0815C105.201 62.9147 103.663 61.3771 103.497 59.4457L103.994 59.4037C103.985 59.3031 103.981 59.2012 103.981 59.0981V58.5795H103.481V50.2758H103.981V49.2387H103.481V40.935H103.981V39.8969H103.481V31.5942H103.981V30.5561H103.481V22.2534H103.981V21.7348C103.981 21.5475 103.994 21.3676 104.017 21.1957L103.522 21.1284C104.017 17.5091 108.906 16.4592 110.843 19.5561L110.419 19.8217C110.511 19.9688 110.596 20.1275 110.673 20.2983L110.86 20.7133L111.315 20.5082L114.305 27.1498V27.1508L113.849 27.3559L114.223 28.186L114.678 27.9809L117.667 34.6235H117.668L117.212 34.8286L117.586 35.6586L118.041 35.4536V35.4526L121.029 42.0961H121.03L120.574 42.3012L120.948 43.1313L121.403 42.9262L124.392 49.5688L123.937 49.7739L124.31 50.6039L124.766 50.3989Z" stroke="#2FED33" stroke-linejoin="round" stroke-dasharray="1 8"/>
<path d="M119.703 39.1489L127.774 57.0825V57.0834L127.318 57.2885L127.487 57.6616C127.507 57.7047 127.524 57.7482 127.542 57.7914L128.003 57.6039C129.04 60.1648 127.215 62.9873 124.454 63.0922L124.436 62.5952C124.39 62.5969 124.342 62.5981 124.295 62.5981H123.959V63.0981H107.817V62.5981H107.481C107.444 62.5981 107.408 62.5973 107.371 62.5961L107.355 63.0942C105.246 63.0289 103.549 61.3325 103.484 59.2231L103.983 59.2084C103.982 59.1718 103.981 59.135 103.981 59.0981V58.351H103.481V22.4819H103.981V21.7348C103.981 21.6683 103.983 21.6021 103.986 21.5375L103.486 21.5141C103.679 17.455 109.191 16.272 111.033 19.894L110.588 20.1205C110.617 20.1781 110.645 20.2376 110.673 20.2983L110.841 20.6713L111.296 20.4662L119.367 38.4008L118.912 38.6059L119.248 39.3539L119.703 39.1489Z" stroke="#2FED33" stroke-linejoin="round" stroke-dasharray="1 24"/>
<path d="M116.195 43.2495L118.315 49.9418V49.9428L117.839 50.0932L118.103 50.9301L118.58 50.7787V50.7778L120.699 57.4721L120.224 57.6235L120.355 58.0414C120.393 58.1598 120.424 58.2781 120.448 58.3959L120.936 58.2944C121.416 60.6022 119.78 62.8355 117.435 63.0746L117.386 62.5795C117.266 62.5918 117.143 62.5981 117.018 62.5981H116.489V63.0981H108.012V62.5981H107.481C107.378 62.5981 107.276 62.5941 107.176 62.5854L107.133 63.0815C105.201 62.9147 103.663 61.3771 103.497 59.4457L103.994 59.4037C103.985 59.3031 103.981 59.2012 103.981 59.0981V58.5405H103.481V49.6166H103.981V48.5004H103.481V39.5766H103.981V38.4614H103.481V29.5375H103.981V28.9799C103.981 28.7831 103.994 28.5946 104.019 28.4155L103.524 28.3461C104.058 24.5268 109.399 23.7016 111.061 27.1811L110.611 27.3969C110.689 27.5601 110.759 27.7357 110.818 27.9233L110.95 28.3412L111.427 28.1899L113.546 34.8832H113.547L113.07 35.0346L113.335 35.8705L113.811 35.7202V35.7192L115.931 42.4116V42.4125L115.454 42.5639L115.72 43.4008L116.195 43.2495Z" stroke="#2FED33" stroke-linejoin="round" stroke-dasharray="1 8"/>
<path d="M103.487 28.7495C103.695 24.4507 109.722 23.5192 111.219 27.5541H111.22L110.751 27.728C110.774 27.7914 110.797 27.8567 110.818 27.9233L111.009 28.5248L111.485 28.3745V28.3735L120.641 57.2885H120.641L120.165 57.4389L120.355 58.0414C120.369 58.0838 120.382 58.1261 120.393 58.1684L120.873 58.0346C121.562 60.5185 119.745 63 117.169 63.0932L117.151 62.5961C117.107 62.5977 117.063 62.5981 117.018 62.5981H116.828V63.0981H107.672V62.5981H107.481C107.444 62.5981 107.408 62.5973 107.371 62.5961L107.355 63.0942C105.246 63.0289 103.549 61.3325 103.484 59.2231L103.983 59.2084C103.982 59.1718 103.981 59.135 103.981 59.0981V58.4955H103.481V29.5815H103.981V28.9799C103.981 28.9103 103.983 28.8413 103.986 28.7739L103.487 28.7495Z" stroke="#2FED33" stroke-linejoin="round" stroke-dasharray="1 24"/>
<path d="M103.526 46.435C104.104 42.3904 109.953 41.8589 111.251 45.7328L110.777 45.892C110.837 46.0713 110.886 46.2632 110.924 46.4672L111.046 47.1332L111.538 47.0434V47.0424L113.493 57.7094L113.002 57.8002L113.124 58.4672C113.145 58.5808 113.16 58.6941 113.17 58.8061L113.666 58.7631C113.853 60.9385 112.243 62.87 110.069 63.0776L110.023 62.5815C109.911 62.5922 109.797 62.5981 109.682 62.5981H109.559V63.0981H107.603V62.5981H107.481C107.378 62.5981 107.276 62.5941 107.176 62.5854L107.133 63.0815C105.201 62.9147 103.663 61.3771 103.497 59.4457L103.994 59.4037C103.985 59.3031 103.981 59.2012 103.981 59.0981V58.4311H103.481V47.7651H103.981V47.0981C103.981 46.8906 103.996 46.6934 104.022 46.5063L103.527 46.436L103.526 46.435Z" stroke="#2FED33" stroke-linejoin="round" stroke-dasharray="1 8"/>
<path d="M103.487 46.8569C103.712 42.287 110.32 41.6861 111.366 46.1401L110.88 46.2553C110.896 46.3243 110.91 46.3951 110.924 46.4672L110.968 46.7065L111.46 46.6166V46.6157L113.572 58.1362V58.1371L113.08 58.227L113.124 58.4672C113.131 58.5077 113.138 58.548 113.144 58.5883L113.637 58.5151C113.986 60.8723 112.203 63.0121 109.821 63.0932L109.805 62.5961C109.764 62.5975 109.723 62.5981 109.682 62.5981H109.638V63.0981H107.525V62.5981H107.481C107.444 62.5981 107.408 62.5973 107.371 62.5961L107.355 63.0942C105.246 63.0289 103.549 61.3325 103.484 59.2231L103.983 59.2084C103.982 59.1718 103.981 59.135 103.981 59.0981V58.8578H103.481V47.3383H103.981V47.0981C103.981 47.0246 103.983 46.9522 103.986 46.8813L103.487 46.8569Z" stroke="#2FED33" stroke-linejoin="round" stroke-dasharray="1 24"/>
<rect x="101.517" y="7.5" width="8" height="6" rx="2" transform="rotate(-30 101.517 7.5)" fill="white"/>
<rect x="108.079" y="4.86603" width="8" height="4" transform="rotate(-30 108.079 4.86603)" fill="white"/>
<rect x="95.9551" y="11.866" width="8" height="4" transform="rotate(-30 95.9551 11.866)" fill="white"/>
<rect width="25" height="10" transform="translate(110.481 36.0981)" fill="#F3BB38"/>
<path d="M112.921 43.1781V39.4181L113.841 38.4981H116.577L117.481 39.4021V40.2581H116.393V39.8021L116.017 39.4261H114.417L114.009 39.8341V42.7621L114.417 43.1701H116.017L116.393 42.7941V42.3381H117.481V43.1941L116.577 44.0981H113.841L112.921 43.1781ZM119.772 38.4981H120.764L122.812 44.0981H121.708L121.252 42.8581H119.284L118.828 44.0981H117.724L119.772 38.4981ZM121.012 41.9621L120.268 39.8341H120.252L119.532 41.9621H121.012ZM123.22 43.1381V38.4981H124.308V42.7621L124.716 43.1701H126.284L126.692 42.7621V38.4981H127.78V43.1381L126.82 44.0981H124.18L123.22 43.1381ZM130.094 39.4181H128.422V38.4981H132.854V39.4181H131.182V44.0981H130.094V39.4181Z" fill="black"/>
<rect width="53" height="10" transform="translate(110.481 46.0981)" fill="white"/>
<path d="M112.961 53.3221V52.7141H113.721V53.0741L114.065 53.4261H115.897L116.249 53.0661V51.9141L115.897 51.5701H113.753L112.977 50.7861V49.2741L113.753 48.4981H116.169L116.945 49.2741V49.8901H116.193V49.5221L115.841 49.1701H114.089L113.737 49.5221V50.5461L114.089 50.8981H116.233L117.009 51.6741V53.3061L116.217 54.0981H113.737L112.961 53.3221ZM118.05 48.4981H118.818V50.9701H121.538V48.4981H122.306V54.0981H121.538V51.6421H118.818V54.0981H118.05V48.4981ZM123.423 53.2021V49.3941L124.319 48.4981H126.959L127.855 49.3941V53.2021L126.959 54.0981H124.319L123.423 53.2021ZM126.591 53.4261L127.087 52.9301V49.6661L126.591 49.1701H124.687L124.191 49.6661V52.9301L124.687 53.4261H126.591ZM133.084 52.3381V54.0981H132.316V52.5301L131.652 51.8181H129.74V54.0981H128.972V48.4981H132.276L133.052 49.2741V51.0181L132.436 51.6341L133.084 52.3381ZM129.74 51.1621H131.932L132.292 50.8101V49.5061L131.932 49.1541H129.74V51.1621ZM135.416 49.1621H133.728V48.4981H137.872V49.1621H136.184V54.0981H135.416V49.1621ZM140.379 48.4981H141.155L141.979 52.9701H142.003L143.267 48.4981H143.931L145.163 52.9701H145.179L145.987 48.4981H146.763L145.627 54.0981H144.851L143.611 49.6261H143.587L142.291 54.0981H141.515L140.379 48.4981ZM148.812 48.4981H149.58L151.596 54.0981H150.804L150.308 52.6741H148.092L147.596 54.0981H146.804L148.812 48.4981ZM150.108 52.0261L149.204 49.4101H149.188L148.3 52.0261H150.108ZM151.196 48.4981H151.988L153.564 53.1781H153.58L155.156 48.4981H155.948L153.964 54.0981H153.18L151.196 48.4981ZM156.706 48.4981H160.466V49.1701H157.474V50.9541H160.234V51.6181H157.474V53.4261H160.466V54.0981H156.706V48.4981Z" fill="black"/>
</svg>
