<svg width="106" height="52" viewBox="0 0 106 52" fill="none" xmlns="http://www.w3.org/2000/svg">
<path d="M56.5517 26.0185C56.6922 26.886 56.8331 27.7533 56.9734 28.6208C57.4313 31.4535 57.8853 34.2868 58.3477 37.1189C58.8328 40.0906 59.3261 43.0609 59.8154 46.0319C60.056 47.492 60.294 48.9525 60.5376 50.4123C60.5724 50.621 60.5337 50.7398 60.299 50.7965C59.6322 50.9578 58.9712 51.1441 58.247 51.3369C56.9073 43.1123 55.5754 34.9364 54.2435 26.7608C54.2122 26.7626 54.181 26.7643 54.1495 26.7662C54.1495 27.3032 54.1495 27.8402 54.1495 28.3772C54.1501 36.0158 54.1508 43.6543 54.1512 51.2929C54.1512 51.6534 53.9723 51.8339 53.6146 51.8342C53.1163 51.8342 52.618 51.8249 52.1198 51.8357C51.8759 51.8409 51.7713 51.7514 51.7792 51.5034C51.7894 51.1845 51.7788 50.8648 51.7788 50.5455C51.7769 42.6769 51.7752 34.8084 51.7734 26.9398C51.7734 26.8387 51.7734 26.7377 51.6977 26.6242C50.3598 34.8313 49.0219 43.0384 47.6714 51.3235C46.9254 51.1259 46.215 50.9482 45.515 50.7362C45.4419 50.7141 45.3792 50.4817 45.3976 50.3598C45.5388 49.4265 45.7046 48.4968 45.8568 47.565C46.2619 45.0844 46.6623 42.6032 47.068 40.1228C47.4325 37.8942 47.802 35.6666 48.1679 33.4384C48.5625 31.0345 48.9559 28.6302 49.3483 26.226C49.3624 26.1397 49.3596 26.0503 49.2871 25.94C46.5122 33.5731 43.7373 41.206 40.9609 48.8435C32.8706 44.8104 25.9718 35.1865 27.1655 23.3259C28.473 10.3369 39.103 0.642886 51.6312 0.0321957C64.8792 -0.613476 75.8048 8.52957 78.3194 20.5065C80.965 33.1073 74.2139 44.1314 64.9769 48.8597C63.5849 45.0366 62.194 41.2208 60.8061 37.4039C59.4217 33.5969 58.0403 29.7887 56.6576 25.9811C56.6222 25.9936 56.5869 26.0059 56.5517 26.0185ZM57.4201 20.9639C57.4642 21.1282 57.4761 21.1911 57.4977 21.2504C58.4059 23.7564 59.3134 26.2628 60.2244 28.7679C60.7449 30.1992 61.5374 31.4531 62.7241 32.4222C64.855 34.1618 67.2963 34.6238 69.961 34.125C73.0949 33.5381 75.631 31.0935 76.302 27.9868C76.6664 26.2999 76.5382 24.6003 76.3091 22.9178C75.5568 17.3952 73.2088 12.6416 69.1139 8.85538C63.2416 3.4256 56.2983 1.36206 48.4274 2.86496C42.1644 4.06085 37.2579 7.46561 33.6049 12.6626C31.2833 15.9656 29.946 19.6567 29.536 23.6735C29.3998 25.0076 29.3018 26.3536 29.5561 27.6835C30.2089 31.097 32.2693 33.259 35.5905 34.1488C38.3594 34.8907 40.9339 34.384 43.185 32.5432C44.5469 31.4295 45.3338 29.9406 45.8777 28.3022C46.9107 25.1907 45.1847 21.9448 42.0442 21.12C41.5935 21.0016 41.1218 20.9639 40.6535 20.8878C40.6535 20.788 40.642 20.6985 40.6552 20.6128C40.8491 19.359 41.8111 18.5453 43.1126 18.5449C49.5772 18.5431 56.0417 18.5444 62.5062 18.5444C62.6309 18.5444 62.7556 18.5444 62.8968 18.5444V22.8793C61.0701 22.2405 59.284 21.6155 57.4201 20.9639Z" fill="#F5F5F5"/>
<path d="M24.0886 11.1194C20.6851 11.0963 17.2816 11.0946 13.8782 11.1013C13.3564 11.1023 13.0518 11.0409 12.846 10.4276C12.2473 8.64331 10.0725 7.63647 8.19907 8.16789C6.22484 8.72797 4.98002 10.5563 5.40296 12.4572C5.95504 14.9391 6.59271 17.4025 7.22219 19.8665C7.52065 21.0348 7.55061 21.027 8.79339 21.0315C9.13911 21.0328 9.48707 21.0089 9.82981 21.0419C10.5538 21.1115 11.0473 20.9632 11.1223 20.0955C11.1671 19.5766 11.4364 19.0803 11.516 18.5602C11.612 17.9341 11.9198 17.7361 12.5372 17.7404C15.967 17.7642 19.3992 17.6844 22.8268 17.7743C24.0461 17.8063 25.215 17.9667 26.3378 18.2348C26.987 15.3295 28.1902 12.701 29.9657 10.3587C28.067 10.8799 26.1121 11.1331 24.0886 11.1194Z" fill="#F5F5F5"/>
<path d="M9.12961 5.9902C6.5499 5.9902 3.97019 5.99541 1.39067 5.98685C0.667778 5.98443 0.147519 5.5533 0.023781 4.90651C-0.0902814 4.31034 0.215064 3.6989 0.789097 3.4544C0.994521 3.36695 1.23828 3.33532 1.46454 3.33494C6.62396 3.32843 11.7832 3.32713 16.9426 3.33178C17.814 3.33253 18.3934 3.88032 18.3934 4.6635C18.3934 5.44036 17.808 5.98406 16.932 5.98648C14.3313 5.99336 11.7305 5.98908 9.12961 5.9902Z" fill="#F5F5F5"/>
<path d="M81.8985 10.3577C85.3019 10.3347 88.7054 10.333 92.1088 10.3397C92.6306 10.3406 92.9352 10.2792 93.141 9.66593C93.7397 7.88168 95.9146 6.87484 97.7879 7.40626C99.7622 7.96634 101.007 9.79469 100.584 11.6956C100.032 14.1774 99.3943 16.6409 98.7648 19.1048C98.4664 20.2732 98.4364 20.2654 97.1936 20.2698C96.8479 20.2711 96.5 20.2473 96.1572 20.2803C95.4332 20.3498 94.9397 20.2015 94.8647 19.3339C94.8199 18.8149 94.5507 18.3187 94.471 17.7986C94.375 17.1725 94.0672 16.9745 93.4499 16.9788C90.02 17.0026 86.5879 16.9228 83.1602 17.0126C81.9409 17.0446 80.772 17.205 79.6492 17.4732C79 14.5678 77.7969 11.9394 76.0214 9.59708C77.92 10.1183 79.8749 10.3715 81.8985 10.3577Z" fill="#F5F5F5"/>
<path d="M96.8566 5.22424C99.4364 5.22424 102.016 5.22945 104.596 5.22089C105.318 5.21847 105.839 4.78734 105.962 4.14055C106.077 3.54438 105.771 2.93294 105.197 2.68844C104.992 2.60099 104.748 2.56936 104.522 2.56898C99.3623 2.56247 94.2031 2.56117 89.0436 2.56582C88.1723 2.56657 87.5928 3.11436 87.5928 3.89754C87.5928 4.6744 88.1782 5.2181 89.0542 5.22052C91.655 5.2274 94.2557 5.22312 96.8566 5.22424Z" fill="#F5F5F5"/>
</svg>
