<svg width="194" height="40" viewBox="0 0 194 40" fill="none" xmlns="http://www.w3.org/2000/svg">
<path d="M40.2729 0H2.46277C1.10262 0 0 1.24128 0 2.77248V36.7296C0 38.2608 1.10262 39.5021 2.46277 39.5021H40.2729C41.6331 39.5021 42.7357 38.2608 42.7357 36.7296V2.77248C42.7357 1.24128 41.6331 0 40.2729 0Z" fill="#D9232A"/>
<path d="M31.0022 18.4837C30.9298 18.7684 30.8557 19.291 30.6267 19.6509C29.5937 21.274 28.9254 23.1515 28.4833 25.0851C28.0332 27.0538 27.7169 27.6631 26.5887 27.3463C25.1439 26.9406 24.185 25.8248 23.4244 24.4712C21.2476 20.5969 19.0983 16.7031 16.9345 12.8197C16.82 12.6143 16.7089 12.4059 16.6134 12.1885C16.3294 11.5419 16.096 10.8072 16.0486 10.0922C15.9763 9.0013 16.7154 8.40615 17.6324 8.76791C19.0124 9.31228 20.3647 9.94673 21.7229 10.5598C23.6568 11.4328 25.5979 12.2881 27.5122 13.2133C29.2153 14.0364 30.2998 15.5269 30.8774 17.4957C30.9145 17.6221 30.9344 17.7562 30.9513 17.8884C30.9711 18.0433 30.9787 18.2002 31.0022 18.4837Z" fill="#121316"/>
<path d="M0.893433 37.6446V36.0604C0.893433 35.7104 1.17758 35.4451 1.48227 35.5143C2.30802 35.7018 3.11939 35.9029 3.94052 36.0036C4.94266 36.1264 5.96021 36.1359 6.9703 36.1227C13.1913 36.042 19.4123 35.944 25.6332 35.8451C29.8067 35.7788 33.9801 35.7012 38.1536 35.6296C38.4163 35.6251 38.6791 35.629 38.9479 35.7195C35.7507 36.099 32.553 36.4734 29.3565 36.8596C26.8727 37.1597 24.3932 37.5082 21.9066 37.7718C20.0603 37.9676 18.2063 38.1604 16.3542 38.1817C11.4556 38.2382 6.55619 38.2009 1.65705 38.2008H1.38746C1.11459 38.2008 0.893433 37.9517 0.893433 37.6446Z" fill="#121316"/>
<path d="M0.86261 28.4989C0.858186 28.1665 1.14947 27.9287 1.4279 28.0395C2.66599 28.532 3.86208 29.0775 5.10507 29.3726C7.43992 29.9271 9.81483 30.2689 12.174 30.692C14.963 31.1921 17.7536 31.6808 20.5429 32.1789C24.8182 32.9423 29.0931 33.7091 33.368 34.4756C33.69 34.5334 34.0106 34.6 34.3236 34.7568C32.9386 34.6463 31.5535 34.538 30.1686 34.4246C28.1103 34.2561 26.0519 34.0873 23.994 33.9125C21.0907 33.6657 18.1878 33.4114 15.2845 33.164C12.7324 32.9466 10.1807 32.7243 7.62764 32.5228C5.52755 32.357 3.42809 32.2259 1.44821 31.2795C1.00218 31.0663 0.811661 30.8177 0.844104 30.2544C0.878213 29.6627 0.870174 29.0681 0.86261 28.4989Z" fill="#121316"/>
<path d="M30.1272 32.9549C28.5103 32.5227 26.8922 32.0966 25.2769 31.6571C18.8091 29.8974 12.3419 28.1346 5.87508 26.3702C4.18787 25.9099 2.65331 25.0746 1.28378 23.8821C1.06538 23.692 0.895787 23.2936 0.875854 22.9778C0.838083 22.3785 0.843125 21.7758 0.850071 21.1273C0.853829 20.7743 1.22869 20.5918 1.4577 20.833C1.75887 21.1501 2.03997 21.4442 2.33049 21.7259C4.03398 23.3777 6.12531 24.1012 8.21203 24.855C15.3713 27.4413 22.5236 30.0526 29.6782 32.6552C29.8331 32.7116 29.985 32.7778 30.1384 32.8395L30.1272 32.9549Z" fill="#121316"/>
<path d="M2.64564 11.8072C2.27421 13.5933 2.85329 15.0615 3.75648 16.4114C4.82356 18.0062 6.24865 19.2531 7.84386 20.1257C14.1178 23.5577 20.3865 27.002 26.6564 30.4433C26.742 30.4902 26.8197 30.5551 26.8644 30.698C24.332 29.5454 21.7999 28.3919 19.2671 27.2405C15.2553 25.4166 11.2384 23.6071 7.23295 21.7655C5.19071 20.8266 3.37491 19.4979 2.16317 17.3695C1.70744 16.5691 1.39119 15.6246 1.18568 14.6969C0.918897 13.4927 1.32573 12.3968 2.27035 11.5258C2.44599 11.3638 2.6974 11.5583 2.64564 11.8072Z" fill="#121316"/>
<path d="M23.7425 27.8106C23.4009 27.6025 23.0528 27.4072 22.7316 27.1592C18.9069 24.2066 14.9851 21.4172 10.7411 19.3126C8.60461 18.2531 6.68672 16.9047 5.39563 14.7744C4.80513 13.8 4.38312 12.75 4.4423 11.5292C4.49063 10.5322 4.87415 9.82823 5.60818 9.40918C5.82068 9.28788 6.07105 9.52223 5.98732 9.77334C5.56603 11.0368 5.88124 12.2478 6.46561 13.4254C7.26999 15.0464 8.46294 16.2478 9.82505 17.2587C14.304 20.5827 18.7804 23.911 23.2573 27.2387C23.4449 27.3782 23.6268 27.5276 23.8114 27.6724C23.7884 27.7185 23.7655 27.7646 23.7425 27.8106Z" fill="#121316"/>
<path d="M36.7985 34.3311C37.4483 34.0688 38.2976 33.8743 39.0069 33.4092C40.5224 32.4156 41.085 30.695 40.4651 28.7726C39.8829 26.9669 39.1217 25.2329 38.414 23.4802C36.5968 18.9796 34.7652 14.4864 32.9414 9.98918C32.8684 9.80897 32.817 9.61768 32.8596 9.3761C33.0038 9.67161 33.15 9.96589 33.2917 10.2629C35.9484 15.8293 38.5719 21.4163 41.2826 26.9492C42.0036 28.4208 41.9036 29.9337 41.7637 31.422C41.6656 32.4661 40.8113 33.1346 39.9749 33.5967C38.9207 34.1793 37.7968 34.4389 36.7985 34.3311Z" fill="#121316"/>
<path d="M7.76177 7.83571C8.26774 7.5002 8.77118 7.15981 9.28005 6.82992C12.1743 4.9536 15.0662 3.07263 17.9704 1.21619C18.2581 1.03228 18.6232 0.920248 18.9538 0.91591C21.0592 0.88849 23.165 0.897916 25.2707 0.903753C25.4946 0.904396 25.7422 0.900326 25.9387 0.999293C27.9986 2.03647 29.7469 3.49571 30.8998 5.73935C30.9404 5.81828 30.9706 5.90434 31.0011 5.98912C31.0068 6.00492 30.991 6.03052 30.9658 6.12081C30.8056 5.92378 30.6667 5.74818 30.5234 5.57729C28.3663 3.0059 25.7625 1.43008 22.5881 1.34996C21.6981 1.32752 20.7451 1.62491 19.9131 2.02089C16.0431 3.8626 12.2056 5.79065 8.35598 7.68651C8.17392 7.77616 7.98697 7.85322 7.8023 7.93612C7.78879 7.9026 7.77532 7.86924 7.76177 7.83571Z" fill="#121316"/>
<path d="M21.8816 25.144C21.3249 24.6799 20.7649 24.2204 20.2118 23.751C17.0638 21.0796 13.9139 18.4111 10.7724 15.7301C9.58933 14.7204 8.56383 13.5345 8.01038 11.9567C7.79765 11.3502 7.69351 10.6502 7.70873 9.99783C7.72929 9.11639 8.16494 8.5086 8.87571 8.24946C9.10686 8.16516 9.32607 8.44204 9.21713 8.68656C8.65103 9.9575 9.04735 11.188 9.63718 12.399C10.3691 13.9018 11.5353 14.9542 12.6678 16.0411C15.6373 18.8913 18.6019 21.7481 21.5673 24.6038C21.7072 24.7386 21.8361 24.8878 21.9701 25.0303C21.9406 25.0682 21.9111 25.1061 21.8816 25.144Z" fill="#121316"/>
<path d="M11.6798 7.113C14.0121 6.28008 16.3442 5.44598 18.677 4.61483C19.5399 4.30737 20.42 4.05213 21.2654 3.69316C22.7035 3.0826 24.1424 3.12265 25.5665 3.6462C28.2432 4.6302 30.4466 6.3218 31.8144 9.18998C31.8724 9.31155 31.9232 9.43821 31.9675 9.56679C31.9788 9.5994 31.9523 9.64857 31.9367 9.71968C30.9163 8.01196 29.5819 6.72672 28.0069 5.74283C25.9991 4.48865 23.9312 4.27246 21.6782 4.88774C18.3826 5.78781 15.0391 6.46597 11.716 7.2387C11.7039 7.19682 11.6919 7.15488 11.6798 7.113Z" fill="#121316"/>
<path d="M31.8804 0.981284C32.5794 0.840438 33.0722 0.890939 33.5708 1.38497C36.1452 3.93601 38.7457 6.45401 41.3564 8.95813C41.7069 9.29439 41.8766 9.61882 41.8376 10.1363C41.7981 10.6587 41.8289 11.1878 41.8289 11.8916C38.468 8.2058 35.2201 4.64394 31.8804 0.981284Z" fill="#121316"/>
<path d="M30.1336 0.880303C30.2956 1.01654 30.4824 1.12735 30.6159 1.29272C34.1276 5.64333 37.5944 10.0413 41.1703 14.3238C42.0056 15.3242 41.7529 16.309 41.6974 17.4125C37.7987 11.963 33.9 6.51353 30.0013 1.06405C30.0454 1.00278 30.0895 0.941568 30.1336 0.880303Z" fill="#121316"/>
<path d="M34.1356 33.4357C34.6179 33.3226 35.1116 33.2511 35.5805 33.0889C37.1702 32.5393 37.9599 31.043 37.5095 29.2416C36.7342 26.1405 35.8819 23.0637 35.0604 19.9772C34.459 17.7171 33.8551 15.4578 33.3646 13.153C33.8559 14.6006 34.3506 16.0467 34.8377 17.4962C36.0546 21.1174 37.2724 24.7382 38.4814 28.3627C39.453 31.2753 38.2302 33.3523 35.4549 33.5094C35.0036 33.535 34.5501 33.513 34.0977 33.513C34.1103 33.4872 34.1229 33.4615 34.1356 33.4357Z" fill="#121316"/>
<path d="M31.2393 4.34216C31.9874 5.52104 32.7383 6.69768 33.4831 7.87913C36.1834 12.1627 38.8839 16.4462 41.5742 20.7377C41.7077 20.9506 41.8048 21.2355 41.8171 21.4931C41.8503 22.1858 41.8285 22.8818 41.7072 23.6358C38.1775 17.2348 34.6477 10.8339 31.118 4.43294C31.1585 4.40268 31.1989 4.37242 31.2393 4.34216Z" fill="#121316"/>
<path d="M0.815918 11.5945C0.895885 11.3519 0.937035 11.0799 1.06167 10.871C2.96833 7.67573 4.88066 4.48467 6.81339 1.30941C6.93403 1.1112 7.22759 0.968749 7.45289 0.944596C7.71391 0.916641 7.97698 0.913107 8.26232 0.916213C8.60825 0.919962 8.7905 1.38127 8.56592 1.67748C5.98426 5.08185 3.47792 8.38687 0.971619 11.6919C0.919719 11.6595 0.867771 11.627 0.815918 11.5945Z" fill="#121316"/>
<path d="M11.8418 7.88067C12.1194 7.80039 12.3341 8.14271 12.1868 8.41953C11.7731 9.1967 11.8669 10.0582 12.1333 10.9577C12.4818 12.1347 13.1319 13.0783 13.8666 13.9744C16.2775 16.9144 18.6766 19.8665 21.0791 22.8151C21.1566 22.9102 21.2215 23.0185 21.2235 23.1953C20.5482 22.4627 19.8725 21.7307 19.1978 20.9973C17.1013 18.7183 14.9937 16.4521 12.9139 14.154C11.8576 12.9868 10.9411 11.7029 10.7342 9.96429C10.6227 9.0264 11.0525 8.10892 11.8418 7.88067Z" fill="#121316"/>
<path d="M15.7426 7.27642C18.2418 6.98423 20.7512 6.77387 23.2377 6.38041C26.8802 5.80406 29.3979 7.80259 31.5292 10.7522C31.9177 11.2897 32.1496 11.9705 32.3872 12.6335C31.398 10.8408 30.1011 9.42704 28.483 8.38638C27.2554 7.59694 25.9447 7.25934 24.5174 7.30138C21.6907 7.38465 18.862 7.37973 16.0341 7.40972C15.934 7.41079 15.8338 7.39547 15.7336 7.38776C15.7366 7.35065 15.7396 7.31353 15.7426 7.27642Z" fill="#121316"/>
<path d="M3.64934 9.78164C5.15616 8.20078 6.66299 6.61992 8.16976 5.03901C9.25848 3.89676 10.3602 2.76962 11.4305 1.60595C11.8738 1.12391 12.4711 0.87215 13.0866 0.907442C13.1692 0.912155 13.2521 0.915743 13.3354 0.919546C13.7145 0.936951 13.8628 1.48218 13.5576 1.73587C10.2877 4.45319 7.01787 7.17046 3.74805 9.88778C3.71513 9.85238 3.68226 9.81704 3.64934 9.78164Z" fill="#121316"/>
<path d="M31.8755 32.2524C32.0192 32.2524 32.1629 32.2558 32.3065 32.252C34.2233 32.2007 35.1077 30.8921 34.8082 28.7603C34.2581 24.8442 33.7808 20.9151 33.2754 16.9911C33.2611 16.8798 33.2736 16.764 33.3658 16.6324C33.6798 18.2021 33.994 19.7716 34.3076 21.3413C34.8271 23.9408 35.3793 26.5328 35.8546 29.1425C36.2135 31.1132 35.2786 32.4097 33.4966 32.5041C32.951 32.5331 32.4006 32.4476 31.8523 32.4146C31.86 32.3605 31.8678 32.3065 31.8755 32.2524Z" fill="#121316"/>
<path d="M41.8271 6.0961C39.7834 4.34462 37.8727 2.70711 35.962 1.06959C37.1919 0.989208 38.4164 0.552316 39.4958 1.60433C40.0988 2.19203 40.8267 2.61542 41.4829 3.13741C41.6306 3.25496 41.8029 3.46961 41.8116 3.64885C41.8481 4.40557 41.8271 5.16587 41.8271 6.0961Z" fill="#121316"/>
<path d="M4.31652 0.90304C3.16701 3.36373 2.08856 5.67228 1.01017 7.98088C0.939478 7.97097 0.868787 7.96106 0.798096 7.95115C0.868501 6.7102 0.833441 5.44623 1.04247 4.23559C1.21216 3.25277 1.6882 2.33962 2.00075 1.38411C2.1193 1.02166 2.29393 0.878244 2.63592 0.896131C3.1476 0.922908 3.66123 0.90304 4.31652 0.90304Z" fill="#121316"/>
<path d="M20.3383 20.6901C19.2078 19.1245 18.0773 17.5589 16.9468 15.9933C16.2698 15.0558 15.527 14.1675 14.9354 13.166C14.3957 12.2522 13.8784 11.2624 13.607 10.2216C13.3031 9.05576 13.8003 8.14358 14.7267 8.06308C14.9524 8.04348 15.0887 8.33112 14.9579 8.53913C13.8456 10.3074 15.041 11.9605 15.9496 13.4816C17.1802 15.5417 18.4178 17.5994 19.781 19.5509C20.0178 19.8899 20.2286 20.2498 20.446 20.6044C20.4101 20.633 20.3742 20.6615 20.3383 20.6901Z" fill="#121316"/>
<path d="M32.7476 18.4164C32.9212 21.2829 33.095 24.1494 33.2683 27.0159C33.3088 27.6876 33.3626 28.3588 33.3837 29.0312C33.4278 30.4358 32.8944 31.1839 31.658 31.3244C31.1068 31.387 30.5381 31.2556 29.9774 31.2124C29.981 31.1492 29.9845 31.086 29.9881 31.0227C30.1806 31.0227 30.3734 31.0293 30.5657 31.0217C31.8229 30.9719 32.5118 30.1996 32.5154 28.7909C32.524 25.3339 32.5182 21.8768 32.5182 18.4198C32.5947 18.4186 32.6711 18.4175 32.7476 18.4164Z" fill="#121316"/>
<path d="M32.3191 15.18C31.6914 13.5942 30.7218 12.3344 29.522 11.2556C28.1772 10.0465 26.5773 9.77406 24.9636 9.49445C23.0497 9.16285 21.1376 8.81866 19.2323 8.34412C20.0857 8.40169 20.9396 8.45063 21.7924 8.51886C23.0078 8.61612 24.221 8.75498 25.4375 8.82696C27.8464 8.96946 29.641 10.3679 31.0934 12.3826C31.6633 13.1732 32.0491 14.1319 32.5187 15.0141C32.4522 15.0695 32.3856 15.1247 32.3191 15.18Z" fill="#121316"/>
<path d="M41.8621 36.0183C41.786 36.2235 41.7698 36.38 41.7146 36.4C38.9314 37.4077 36.2016 38.7548 33.097 38.0711C36.016 37.3875 38.8923 36.7138 41.8621 36.0183Z" fill="#121316"/>
<path d="M31.9228 21.0043C31.7783 22.4511 31.6317 23.8977 31.49 25.3448C31.384 26.4289 31.3125 27.5184 31.1739 28.5971C31.0281 29.7324 30.3409 30.2682 29.3311 30.0957C29.0528 30.0482 28.7801 29.9587 28.5051 29.7718C28.6077 29.7612 28.7102 29.7447 28.813 29.741C29.8365 29.7038 30.3168 29.2545 30.5187 28.1256C30.8969 26.0113 31.269 23.8957 31.6466 21.7813C31.6943 21.5142 31.7593 21.2511 31.8163 20.9862C31.8518 20.9922 31.8873 20.9983 31.9228 21.0043Z" fill="#121316"/>
<path d="M22.1135 9.85198C24.0557 10.4195 26.0463 10.8356 27.9265 11.597C29.8266 12.3665 31.0743 14.0698 31.8752 16.1541C31.958 16.3697 31.979 16.6154 32.0379 16.8905C31.5966 16.0897 31.2396 15.2997 30.7654 14.6122C29.8755 13.322 28.7443 12.4019 27.3209 11.9281C25.7247 11.3969 24.152 10.7761 22.5697 10.1923C22.404 10.1312 22.2423 10.0563 22.0787 9.98785C22.0903 9.94254 22.102 9.89729 22.1135 9.85198Z" fill="#121316"/>
<path d="M27.1745 28.4995C28.1344 28.5449 28.6062 27.9605 28.9267 27.0357C29.4762 25.4502 30.095 23.8952 30.8054 22.3762C30.3932 23.875 29.9812 25.3739 29.5683 26.8724C29.5195 27.0498 29.4601 27.2236 29.4153 27.4022C29.0724 28.7706 28.3426 29.1413 27.1745 28.4995Z" fill="#121316"/>
<path d="M190.674 28.1274L190.453 25.9734V9.84802H193.713V28.1274H190.674ZM186.098 28.2089C184.313 28.2089 183.001 27.6034 182.163 26.3926C181.325 25.1817 180.906 23.4508 180.906 21.1998C180.906 18.9411 181.325 17.2102 182.163 16.0071C183.001 14.804 184.313 14.2025 186.098 14.2025C187.682 14.2025 189.044 14.5867 190.185 15.3551C191.326 16.1158 191.897 16.9385 191.897 17.8234L190.453 19.3253C190.453 18.5491 190.135 17.8777 189.498 17.3111C188.862 16.7445 188.101 16.4612 187.216 16.4612C186.277 16.4612 185.54 16.7872 185.004 17.4392C184.476 18.0912 184.212 19.3486 184.212 21.2115C184.212 23.0821 184.476 24.3434 185.004 24.9954C185.54 25.6474 186.277 25.9734 187.216 25.9734C188.101 25.9734 188.862 25.6901 189.498 25.1235C190.135 24.5491 190.453 23.87 190.453 23.086L191.897 24.6112C191.897 25.4961 191.326 26.3188 190.185 27.0795C189.044 27.8324 187.682 28.2089 186.098 28.2089Z" fill="white"/>
<path d="M175.26 28.1273V14.3188H178.543V28.1273H175.26ZM175.26 10.3253H178.543V12.7936H175.26V10.3253Z" fill="white"/>
<path d="M169.28 20.967C169.28 19.1663 169.07 17.9671 168.651 17.3694C168.232 16.7717 167.631 16.4729 166.847 16.4729C165.954 16.4729 165.248 16.7795 164.728 17.3927C164.207 18.0059 163.947 18.7006 163.947 19.4767L162.69 18.685C162.69 17.4276 163.179 16.3681 164.157 15.5065C165.143 14.6372 166.447 14.2025 168.069 14.2025C169.792 14.2025 170.968 14.7497 171.597 15.8442C172.233 16.9308 172.552 18.6385 172.552 20.967H169.28ZM160.699 28.1274V14.3306H163.237L163.959 16.8338V28.1274H160.699Z" fill="white"/>
<path d="M151.238 28.2205C148.762 28.2205 147.039 27.5569 146.069 26.2296C145.098 24.8946 144.613 22.892 144.613 20.2219C144.613 17.5207 145.11 15.522 146.103 14.2258C147.097 12.9218 148.902 12.2698 151.517 12.2698C153.986 12.2698 155.697 12.8597 156.652 14.0395C157.614 15.2193 158.119 16.6165 158.165 18.2309H154.859C154.797 16.8804 154.506 15.9256 153.986 15.3668C153.473 14.8079 152.655 14.5285 151.529 14.5285C150.365 14.5285 149.476 14.8739 148.863 15.5647C148.257 16.2478 147.955 17.8351 147.955 20.3267C147.955 22.5543 148.257 24.0524 148.863 24.8208C149.476 25.5815 150.373 25.9618 151.552 25.9618C152.647 25.9618 153.442 25.7328 153.939 25.2749C154.436 24.8169 154.715 24.0485 154.777 22.9696V22.1662H151.797V20.1986H158.165V28.1274H156.291L155.93 25.9968C155.286 27.4638 153.722 28.205 151.238 28.2205Z" fill="white"/>
<path d="M135.798 28.1274V9.84802H139.069V28.1274H135.798Z" fill="white"/>
<path d="M125.476 28.2672C124.684 28.2672 123.978 28.2012 123.357 28.0693C122.736 27.9295 122.2 27.7006 121.75 27.3823C121.308 27.0641 120.97 26.6333 120.737 26.09C120.504 25.5389 120.388 24.8519 120.388 24.0292C120.388 23.2452 120.5 22.5893 120.726 22.0615C120.951 21.5337 121.277 21.1146 121.704 20.8041C122.138 20.4858 122.67 20.2569 123.299 20.1172C123.927 19.9774 124.641 19.9076 125.441 19.9076H129.865V19.2789C129.865 18.5803 129.741 18.0214 129.493 17.6023C129.252 17.1831 128.907 16.8804 128.456 16.6941C128.006 16.5001 127.467 16.4031 126.838 16.4031C126.326 16.4031 125.856 16.4884 125.429 16.6592C125.002 16.83 124.641 17.1094 124.347 17.4975C124.059 17.8778 123.858 18.394 123.741 19.046L120.539 18.1728C120.687 17.4354 120.951 16.8145 121.331 16.3099C121.719 15.7976 122.193 15.3901 122.751 15.0874C123.31 14.7769 123.935 14.5518 124.626 14.4121C125.317 14.2647 126.05 14.1909 126.826 14.1909C128.193 14.1909 129.345 14.3656 130.284 14.7148C131.224 15.0641 131.934 15.623 132.415 16.3914C132.904 17.1521 133.149 18.1689 133.149 19.4419V28.1275H130.424L130.145 26.4742C130.028 26.6837 129.838 26.8933 129.574 27.1029C129.31 27.3047 128.977 27.4949 128.573 27.6734C128.177 27.8519 127.719 27.9955 127.199 28.1042C126.679 28.2128 126.105 28.2672 125.476 28.2672ZM126.209 26.1482C126.815 26.1482 127.362 26.0783 127.851 25.9386C128.34 25.7911 128.751 25.601 129.085 25.3681C129.427 25.1352 129.671 24.8907 129.819 24.6346V21.7122H126.209C125.852 21.7122 125.519 21.7433 125.208 21.8054C124.905 21.8597 124.641 21.9645 124.416 22.1197C124.191 22.275 124.017 22.5001 123.892 22.795C123.768 23.0822 123.706 23.4548 123.706 23.9127C123.706 24.3707 123.768 24.7471 123.892 25.0421C124.017 25.3293 124.191 25.5544 124.416 25.7174C124.649 25.8726 124.917 25.9852 125.22 26.055C125.522 26.1171 125.852 26.1482 126.209 26.1482Z" fill="white"/>
<path d="M114.672 28.1273V14.3188H117.956V28.1273H114.672ZM114.672 10.3253H117.956V12.7936H114.672V10.3253Z" fill="white"/>
<path d="M108.869 28.2903C107.728 28.2903 106.766 28.0458 105.982 27.5568C105.206 27.0678 104.818 26.1791 104.818 24.8906V16.5892H101.628V14.3305H104.818V11.1869H108.089V14.3305H112.467V16.5892H108.089V24.1571C108.089 24.9488 108.252 25.4688 108.578 25.7172C108.912 25.9656 109.378 26.0898 109.976 26.0898C110.55 26.0898 111.109 25.9928 111.652 25.7987V27.9876C110.767 28.1894 109.84 28.2903 108.869 28.2903Z" fill="white"/>
<path d="M92.6165 28.2672C91.8248 28.2672 91.1185 28.2012 90.4975 28.0693C89.8765 27.9295 89.341 27.7006 88.8908 27.3823C88.4484 27.0641 88.1107 26.6333 87.8779 26.09C87.645 25.5389 87.5286 24.8519 87.5286 24.0292C87.5286 23.2452 87.6411 22.5893 87.8662 22.0615C88.0913 21.5337 88.4173 21.1146 88.8442 20.8041C89.2789 20.4858 89.8106 20.2569 90.4393 20.1172C91.068 19.9774 91.7821 19.9076 92.5816 19.9076H97.0059V19.2789C97.0059 18.5803 96.8817 18.0214 96.6333 17.6023C96.3927 17.1831 96.0473 16.8804 95.5971 16.6941C95.1469 16.5001 94.6074 16.4031 93.9787 16.4031C93.4664 16.4031 92.9968 16.4884 92.5699 16.6592C92.143 16.83 91.7821 17.1094 91.4871 17.4975C91.2 17.8778 90.9981 18.394 90.8817 19.046L87.6799 18.1728C87.8274 17.4354 88.0913 16.8145 88.4716 16.3099C88.8597 15.7976 89.3332 15.3901 89.8921 15.0874C90.4509 14.7769 91.0758 14.5518 91.7666 14.4121C92.4574 14.2647 93.1909 14.1909 93.9671 14.1909C95.3332 14.1909 96.4858 14.3656 97.425 14.7148C98.3642 15.0641 99.0744 15.623 99.5557 16.3914C100.045 17.1521 100.289 18.1689 100.289 19.4419V28.1275H97.5647L97.2853 26.4742C97.1689 26.6837 96.9787 26.8933 96.7148 27.1029C96.4509 27.3047 96.1171 27.4949 95.7135 27.6734C95.3177 27.8519 94.8597 27.9955 94.3397 28.1042C93.8196 28.2128 93.2452 28.2672 92.6165 28.2672ZM93.35 26.1482C93.9554 26.1482 94.5027 26.0783 94.9917 25.9386C95.4807 25.7911 95.892 25.601 96.2258 25.3681C96.5673 25.1352 96.8118 24.8907 96.9593 24.6346V21.7122H93.35C92.993 21.7122 92.6592 21.7433 92.3487 21.8054C92.046 21.8597 91.7821 21.9645 91.557 22.1197C91.3319 22.275 91.1573 22.5001 91.0331 22.795C90.9089 23.0822 90.8468 23.4548 90.8468 23.9127C90.8468 24.3707 90.9089 24.7471 91.0331 25.0421C91.1573 25.3293 91.3319 25.5544 91.557 25.7174C91.7899 25.8726 92.0577 25.9852 92.3604 26.055C92.6631 26.1171 92.993 26.1482 93.35 26.1482Z" fill="white"/>
<path d="M72.9825 33.2852V14.3306H75.5207L76.2426 16.5777V33.2852H72.9825ZM80.6319 28.2089C79.0485 28.2089 77.6824 27.8325 76.5336 27.0796C75.3849 26.3189 74.8105 25.4961 74.8105 24.6113L76.2426 23.086C76.2426 23.8778 76.5647 24.5569 77.2089 25.1236C77.8609 25.6902 78.6255 25.9735 79.5026 25.9735C80.4495 25.9735 81.183 25.6475 81.7031 24.9955C82.2309 24.3357 82.4948 23.0744 82.4948 21.2115C82.4948 19.3642 82.2309 18.1106 81.7031 17.4509C81.183 16.7911 80.4495 16.4612 79.5026 16.4612C78.6255 16.4612 77.8609 16.7445 77.2089 17.3112C76.5647 17.8778 76.2426 18.5492 76.2426 19.3254L74.8105 17.8235C74.8105 16.9386 75.3849 16.1158 76.5336 15.3552C77.6824 14.5867 79.0485 14.2025 80.6319 14.2025C82.4172 14.2025 83.7251 14.8079 84.5556 16.0188C85.3861 17.2297 85.8014 18.9567 85.8014 21.1999C85.8014 23.4353 85.3861 25.1624 84.5556 26.381C83.7251 27.5996 82.4172 28.2089 80.6319 28.2089Z" fill="white"/>
<path d="M64.1826 28.2205C61.5824 28.2205 59.8127 27.7354 58.8735 26.7652C57.942 25.7872 57.4763 24.3279 57.4763 22.3875H60.7829C60.7829 23.9088 61.0817 24.8868 61.6794 25.3215C62.2771 25.7561 63.1037 25.9735 64.1593 25.9735C65.2072 25.9735 66.03 25.7988 66.6276 25.4495C67.2331 25.1003 67.5358 24.5918 67.5358 23.9243C67.5358 23.1248 67.1438 22.5737 66.3599 22.271C65.5837 21.9605 64.497 21.6578 63.0998 21.3629C61.0352 20.8972 59.5837 20.3694 58.7454 19.7794C57.9071 19.1895 57.488 18.2309 57.488 16.9036C57.488 15.6307 57.9653 14.5401 58.92 13.632C59.8825 12.7238 61.6212 12.2698 64.1361 12.2698C66.6742 12.2698 68.4168 12.7704 69.3637 13.7717C70.3107 14.773 70.7842 16.1896 70.7842 18.0214H67.4659C67.4659 16.5388 67.1593 15.5841 66.5461 15.1572C65.9329 14.7303 65.1179 14.5169 64.1011 14.5169C63.0377 14.5169 62.2033 14.6993 61.5979 15.0641C60.9925 15.4289 60.6898 15.9179 60.6898 16.5311C60.6898 17.3306 61.0856 17.8855 61.8773 18.196C62.6768 18.5065 63.7635 18.8131 65.1373 19.1158C67.2641 19.5893 68.7389 20.0977 69.5616 20.641C70.3844 21.1844 70.7958 22.1274 70.7958 23.4702C70.7958 24.7898 70.3262 25.9114 69.387 26.835C68.4556 27.7587 66.7208 28.2205 64.1826 28.2205Z" fill="white"/>
</svg>
