<svg width="63" height="58" viewBox="0 0 63 58" fill="none" xmlns="http://www.w3.org/2000/svg">
<path d="M58.653 0H3.58675C1.60584 0 0 1.80779 0 4.03781V53.4926C0 55.7226 1.60584 57.5304 3.58675 57.5304H58.653C60.6339 57.5304 62.2397 55.7226 62.2397 53.4926V4.03781C62.2397 1.80779 60.6339 0 58.653 0Z" fill="#D9232A"/>
<path d="M45.1511 26.9197C45.0457 27.3344 44.9377 28.0954 44.6042 28.6195C43.0998 30.9834 42.1265 33.7178 41.4826 36.5339C40.8271 39.4011 40.3665 40.2885 38.7233 39.8271C36.6191 39.2362 35.2226 37.6112 34.1149 35.6398C30.9446 29.9974 27.8145 24.3264 24.663 18.6708C24.4963 18.3715 24.3346 18.0681 24.1954 17.7515C23.7818 16.8098 23.4419 15.7397 23.3728 14.6984C23.2675 13.1096 24.3439 12.2429 25.6795 12.7697C27.6893 13.5626 29.6588 14.4866 31.6368 15.3794C34.4534 16.6509 37.2803 17.8965 40.0683 19.244C42.5486 20.4427 44.1281 22.6135 44.9694 25.4808C45.0234 25.6649 45.0524 25.8601 45.077 26.0527C45.1058 26.2783 45.1168 26.5068 45.1511 26.9197Z" fill="#121316"/>
<path d="M1.30115 54.825V52.5178C1.30115 52.0081 1.71497 51.6218 2.15872 51.7225C3.36133 51.9955 4.54301 52.2885 5.73889 52.4351C7.19839 52.614 8.68034 52.6277 10.1514 52.6086C19.2117 52.491 28.2717 52.3484 37.3318 52.2043C43.4101 52.1077 49.4881 51.9946 55.5664 51.8904C55.949 51.8839 56.3318 51.8896 56.7232 52.0214C52.0668 52.5741 47.4098 53.1193 42.7544 53.6818C39.1371 54.1188 35.5259 54.6264 31.9044 55.0103C29.2155 55.2954 26.5154 55.5763 23.8181 55.6073C16.6838 55.6896 9.54831 55.6351 2.41327 55.6351H2.02064C1.62324 55.6351 1.30115 55.2723 1.30115 54.825Z" fill="#121316"/>
<path d="M1.25609 41.5056C1.24965 41.0215 1.67386 40.6752 2.07937 40.8365C3.88251 41.5537 5.62448 42.3482 7.43476 42.7781C10.8352 43.5856 14.294 44.0834 17.7299 44.6996C21.7917 45.428 25.856 46.1397 29.9182 46.865C36.1447 47.9768 42.3706 49.0937 48.5965 50.21C49.0654 50.2941 49.5324 50.3911 49.9883 50.6196C47.9712 50.4585 45.9539 50.3008 43.937 50.1357C40.9392 49.8902 37.9415 49.6445 34.9444 49.3898C30.716 49.0305 26.4883 48.66 22.2599 48.2997C18.5431 47.9831 14.8268 47.6593 11.1086 47.3659C8.05006 47.1245 4.99242 46.9336 2.10895 45.5552C1.45936 45.2447 1.18189 44.8827 1.22914 44.0622C1.27881 43.2006 1.2671 42.3345 1.25609 41.5056Z" fill="#121316"/>
<path d="M43.8769 47.9953C41.5222 47.3658 39.1655 46.7453 36.813 46.1052C27.3934 43.5423 17.9747 40.975 8.55652 38.4054C6.09928 37.735 3.86437 36.5185 1.8698 34.7818C1.55172 34.5049 1.30473 33.9247 1.2757 33.4647C1.22069 32.592 1.22804 31.7141 1.23815 30.7697C1.24362 30.2555 1.78957 29.9898 2.12309 30.3411C2.56172 30.803 2.97111 31.2312 3.39422 31.6414C5.87515 34.0471 8.92094 35.1008 11.96 36.1987C22.3867 39.9654 32.8031 43.7684 43.2231 47.5588C43.4486 47.6409 43.6699 47.7374 43.8932 47.8271L43.8769 47.9953Z" fill="#121316"/>
<path d="M3.85301 17.1959C3.31205 19.7973 4.15543 21.9355 5.47082 23.9014C7.02489 26.2241 9.10038 28.04 11.4236 29.3109C20.5609 34.3092 29.6905 39.3254 38.822 44.3373C38.9466 44.4056 39.0597 44.5002 39.1249 44.7082C35.4368 43.0296 31.749 41.3497 28.0603 39.6728C22.2175 37.0165 16.3673 34.3811 10.5339 31.6992C7.55961 30.3317 4.91511 28.3965 3.15035 25.2968C2.48662 24.1311 2.02603 22.7556 1.72673 21.4044C1.3382 19.6506 1.9307 18.0547 3.30644 16.7861C3.56223 16.5502 3.92839 16.8335 3.85301 17.1959Z" fill="#121316"/>
<path d="M34.5783 40.503C34.0808 40.2 33.5738 39.9155 33.106 39.5543C27.5358 35.2543 21.8241 31.1917 15.6433 28.1266C12.5317 26.5835 9.73847 24.6198 7.85815 21.5172C6.99815 20.0982 6.38354 18.5689 6.46973 16.791C6.54012 15.339 7.09867 14.3137 8.1677 13.7034C8.47719 13.5268 8.84182 13.8681 8.71988 14.2338C8.10632 16.0739 8.56538 17.8376 9.41645 19.5526C10.5879 21.9134 12.3253 23.6631 14.3091 25.1353C20.8322 29.9764 27.3516 34.8237 33.8716 39.6701C34.1449 39.8733 34.4099 40.0909 34.6787 40.3018C34.6452 40.3689 34.6117 40.436 34.5783 40.503Z" fill="#121316"/>
<path d="M53.5928 49.9991C54.5393 49.6172 55.7761 49.3339 56.8091 48.6566C59.0162 47.2094 59.8357 44.7036 58.9329 41.9038C58.0849 39.2741 56.9764 36.7486 55.9456 34.196C53.2991 27.6415 50.6315 21.0976 47.9755 14.5479C47.869 14.2854 47.7942 14.0068 47.8562 13.655C48.0662 14.0854 48.2793 14.514 48.4857 14.9465C52.3548 23.0534 56.1756 31.1903 60.1234 39.2482C61.1735 41.3915 61.0279 43.5948 60.8242 45.7623C60.6812 47.2829 59.437 48.2565 58.2189 48.9296C56.6836 49.7781 55.0468 50.1562 53.5928 49.9991Z" fill="#121316"/>
<path d="M11.3044 11.4118C12.0413 10.9232 12.7745 10.4275 13.5156 9.94701C17.7307 7.21437 21.9424 4.47494 26.1721 1.77124C26.5911 1.50341 27.1228 1.34024 27.6043 1.33392C30.6706 1.29399 33.7375 1.30772 36.8041 1.31622C37.1303 1.31715 37.4908 1.31123 37.7771 1.45536C40.777 2.96589 43.3233 5.09111 45.0024 8.35871C45.0615 8.47368 45.1054 8.59902 45.1498 8.72248C45.1581 8.74549 45.1351 8.78277 45.0985 8.91427C44.8652 8.62733 44.6629 8.37158 44.4541 8.1227C41.3125 4.37776 37.5204 2.08276 32.8972 1.96607C31.6011 1.93339 30.2131 2.3665 29.0014 2.9432C23.3653 5.62545 17.7763 8.43343 12.1698 11.1945C11.9047 11.3251 11.6324 11.4373 11.3634 11.5581C11.3437 11.5092 11.3241 11.4607 11.3044 11.4118Z" fill="#121316"/>
<path d="M31.8681 36.6193C31.0572 35.9435 30.2417 35.2743 29.4361 34.5907C24.8515 30.7 20.264 26.8136 15.6888 22.909C13.9657 21.4386 12.4722 19.7114 11.6662 17.4135C11.3563 16.5303 11.2047 15.5108 11.2269 14.5606C11.2568 13.2769 11.8913 12.3918 12.9264 12.0143C13.2631 11.8916 13.5823 12.2948 13.4237 12.6509C12.5992 14.5019 13.1764 16.2939 14.0354 18.0577C15.1013 20.2463 16.7999 21.7791 18.4491 23.362C22.7739 27.513 27.0915 31.6736 31.4103 35.8327C31.614 36.0289 31.8017 36.2463 31.9969 36.4537C31.954 36.5089 31.911 36.5641 31.8681 36.6193Z" fill="#121316"/>
<path d="M17.0104 10.3594C20.4072 9.14637 23.8035 7.9316 27.2011 6.72112C28.4578 6.27334 29.7394 5.90162 30.9707 5.37882C33.0652 4.4896 35.1608 4.54794 37.2348 5.31042C41.133 6.7435 44.3421 9.20713 46.3342 13.3843C46.4187 13.5614 46.4926 13.7458 46.5572 13.9331C46.5735 13.9806 46.535 14.0522 46.5122 14.1558C45.0262 11.6687 43.0828 9.79685 40.7889 8.36393C37.8649 6.53736 34.8531 6.22249 31.5719 7.11858C26.7722 8.42944 21.9028 9.41709 17.0631 10.5425C17.0455 10.4815 17.028 10.4204 17.0104 10.3594Z" fill="#121316"/>
<path d="M46.4302 1.42915C47.4483 1.22402 48.166 1.29757 48.8921 2.01708C52.6414 5.73238 56.4288 9.39955 60.2309 13.0465C60.7414 13.5363 60.9886 14.0088 60.9317 14.7623C60.8743 15.5232 60.9191 16.2939 60.9191 17.3189C56.0243 11.9508 51.2941 6.76339 46.4302 1.42915Z" fill="#121316"/>
<path d="M43.8864 1.28186C44.1223 1.48028 44.3944 1.64165 44.5888 1.8825C49.7032 8.21867 54.7522 14.6238 59.9601 20.8608C61.1766 22.3178 60.8085 23.752 60.7278 25.3591C55.0497 17.4226 49.3717 9.48601 43.6937 1.54946C43.758 1.46024 43.8222 1.37109 43.8864 1.28186Z" fill="#121316"/>
<path d="M49.7146 48.6953C50.417 48.5306 51.1361 48.4264 51.819 48.1902C54.1342 47.3898 55.2843 45.2106 54.6284 42.587C53.4991 38.0706 52.2579 33.5897 51.0616 29.0945C50.1856 25.803 49.3062 22.5125 48.5918 19.1557C49.3073 21.2641 50.0278 23.3702 50.7372 25.4811C52.5094 30.755 54.283 36.0284 56.0438 41.3071C57.4588 45.5488 55.678 48.5739 51.636 48.8026C50.9787 48.8398 50.3183 48.8079 49.6594 48.8079C49.6778 48.7703 49.6962 48.7329 49.7146 48.6953Z" fill="#121316"/>
<path d="M45.4965 6.32396C46.5861 8.04087 47.6796 9.7545 48.7644 11.4751C52.6971 17.7137 56.6301 23.9521 60.5482 30.2022C60.7425 30.5123 60.884 30.9272 60.9019 31.3024C60.9503 32.3112 60.9185 33.3248 60.7419 34.423C55.6012 25.1007 50.4606 15.7784 45.3199 6.45616C45.3788 6.41209 45.4377 6.36803 45.4965 6.32396Z" fill="#121316"/>
<path d="M1.18823 16.886C1.3047 16.5326 1.36463 16.1365 1.54615 15.8323C4.32298 11.1787 7.10806 6.53133 9.92287 1.90692C10.0986 1.61826 10.5261 1.41079 10.8542 1.37562C11.2344 1.3349 11.6175 1.32975 12.0331 1.33428C12.5369 1.33974 12.8023 2.01159 12.4752 2.44298C8.71534 7.40105 5.06513 12.2144 1.41499 17.0279C1.33941 16.9806 1.26375 16.9333 1.18823 16.886Z" fill="#121316"/>
<path d="M17.2462 11.4774C17.6506 11.3605 17.9632 11.859 17.7487 12.2622C17.1461 13.394 17.2828 14.6487 17.6707 15.9587C18.1783 17.6729 19.1251 19.0472 20.1952 20.3522C23.7063 24.634 27.2004 28.9334 30.6993 33.2277C30.8121 33.3662 30.9066 33.5239 30.9096 33.7814C29.9261 32.7144 28.942 31.6483 27.9594 30.5803C24.9062 27.2612 21.8367 23.9607 18.8076 20.6138C17.2692 18.9139 15.9344 17.044 15.6332 14.5119C15.4707 13.146 16.0967 11.8098 17.2462 11.4774Z" fill="#121316"/>
<path d="M22.927 10.5972C26.5668 10.1717 30.2214 9.86534 33.8428 9.29231C39.1477 8.45293 42.8143 11.3635 45.9185 15.6594C46.4841 16.4422 46.822 17.4337 47.1679 18.3992C45.7272 15.7884 43.8385 13.7294 41.4819 12.2138C39.6941 11.064 37.7851 10.5724 35.7064 10.6336C31.5898 10.7549 27.47 10.7477 23.3515 10.7914C23.2058 10.7929 23.0598 10.7706 22.9139 10.7594C22.9183 10.7053 22.9226 10.6513 22.927 10.5972Z" fill="#121316"/>
<path d="M5.31501 14.2458C7.50953 11.9435 9.70405 9.64114 11.8985 7.33873C13.4841 5.67517 15.0886 4.0336 16.6473 2.33885C17.293 1.63681 18.1629 1.27016 19.0594 1.32156C19.1797 1.32842 19.3003 1.33365 19.4216 1.33918C19.9738 1.36453 20.1898 2.1586 19.7452 2.52806C14.9831 6.48554 10.2209 10.4429 5.45877 14.4004C5.41083 14.3489 5.36295 14.2974 5.31501 14.2458Z" fill="#121316"/>
<path d="M46.4231 46.9719C46.6323 46.9719 46.8416 46.9767 47.0507 46.9712C49.8424 46.8965 51.1305 44.9907 50.6943 41.8859C49.8931 36.1826 49.1979 30.4604 48.4619 24.7454C48.4411 24.5833 48.4593 24.4147 48.5936 24.2231C49.0508 26.5091 49.5084 28.7949 49.9652 31.081C50.7217 34.8669 51.5259 38.6418 52.2182 42.4425C52.741 45.3128 51.3793 47.2009 48.7841 47.3384C47.9894 47.3806 47.1878 47.2562 46.3893 47.208C46.4005 47.1293 46.4119 47.0506 46.4231 46.9719Z" fill="#121316"/>
<path d="M60.9164 8.87819C57.94 6.32736 55.1574 3.94251 52.3746 1.55765C54.1657 1.44058 55.9491 0.804294 57.5212 2.33643C58.3994 3.19235 59.4595 3.80898 60.4151 4.5692C60.6303 4.7404 60.8813 5.053 60.8939 5.31405C60.9471 6.41612 60.9164 7.52342 60.9164 8.87819Z" fill="#121316"/>
<path d="M6.28655 1.31513C4.61241 4.89885 3.04178 8.26098 1.47121 11.6232C1.36826 11.6088 1.26531 11.5943 1.16235 11.5799C1.26489 9.77261 1.21383 7.93177 1.51826 6.16861C1.76539 4.73724 2.4587 3.40735 2.91388 2.01576C3.08653 1.48789 3.34087 1.27902 3.83894 1.30507C4.58414 1.34406 5.33218 1.31513 6.28655 1.31513Z" fill="#121316"/>
<path d="M29.6204 30.1327C27.9739 27.8526 26.3274 25.5725 24.681 23.2924C23.695 21.9269 22.6132 20.6332 21.7517 19.1746C20.9657 17.8438 20.2122 16.4023 19.817 14.8864C19.3744 13.1886 20.0986 11.8601 21.4477 11.7429C21.7764 11.7143 21.975 12.1332 21.7845 12.4362C20.1646 15.0115 21.9054 17.419 23.2287 19.6342C25.021 22.6346 26.8234 25.6314 28.8087 28.4736C29.1536 28.9673 29.4607 29.4914 29.7772 30.0078C29.725 30.0495 29.6727 30.0911 29.6204 30.1327Z" fill="#121316"/>
<path d="M47.6933 26.8213C47.9461 30.9961 48.1992 35.1708 48.4516 39.3456C48.5107 40.3238 48.5889 41.3013 48.6197 42.2806C48.6839 44.3263 47.9071 45.4158 46.1064 45.6203C45.3036 45.7115 44.4754 45.5203 43.6588 45.4573C43.664 45.3652 43.6691 45.2732 43.6743 45.1811C43.9548 45.1811 44.2355 45.1906 44.5156 45.1795C46.3466 45.107 47.3499 43.9823 47.355 41.9306C47.3676 36.8959 47.3591 31.8611 47.3591 26.8263C47.4705 26.8246 47.5819 26.823 47.6933 26.8213Z" fill="#121316"/>
<path d="M47.0691 22.108C46.155 19.7984 44.7429 17.9638 42.9954 16.3926C41.0369 14.6317 38.7068 14.2349 36.3566 13.8277C33.5693 13.3447 30.7845 12.8435 28.0096 12.1523C29.2525 12.2362 30.4962 12.3075 31.7381 12.4068C33.5082 12.5485 35.2751 12.7507 37.0468 12.8555C40.5552 13.0631 43.1687 15.0997 45.284 18.034C46.114 19.1853 46.6758 20.5817 47.3598 21.8665C47.2629 21.9471 47.1659 22.0275 47.0691 22.108Z" fill="#121316"/>
<path d="M60.9673 52.4567C60.8565 52.7555 60.8329 52.9834 60.7525 53.0126C56.6991 54.4802 52.7234 56.442 48.202 55.4463C52.4532 54.4507 56.6422 53.4696 60.9673 52.4567Z" fill="#121316"/>
<path d="M46.4922 30.5903C46.2817 32.6974 46.0682 34.8042 45.862 36.9118C45.7075 38.4907 45.6033 40.0774 45.4016 41.6484C45.1892 43.3018 44.1884 44.0822 42.7177 43.8309C42.3124 43.7617 41.9153 43.6314 41.5148 43.3592C41.6642 43.3438 41.8134 43.3198 41.9631 43.3143C43.4538 43.2602 44.1533 42.6059 44.4474 40.9617C44.9981 37.8825 45.5401 34.8013 46.09 31.7219C46.1594 31.333 46.2542 30.9498 46.3372 30.564C46.3889 30.5727 46.4405 30.5815 46.4922 30.5903Z" fill="#121316"/>
<path d="M32.206 14.3483C35.0346 15.1749 37.9338 15.7809 40.6721 16.8898C43.4393 18.0104 45.2564 20.4911 46.4228 23.5267C46.5434 23.8406 46.574 24.1984 46.6599 24.5991C46.0171 23.4328 45.4972 22.2823 44.8066 21.281C43.5106 19.4019 41.863 18.062 39.79 17.372C37.4653 16.5983 35.1749 15.6942 32.8705 14.844C32.6291 14.7549 32.3936 14.646 32.1554 14.5462C32.1722 14.4802 32.1892 14.4143 32.206 14.3483Z" fill="#121316"/>
<path d="M39.5766 41.5062C40.9747 41.5724 41.6618 40.7213 42.1285 39.3745C42.9288 37.0653 43.83 34.8007 44.8647 32.5884C44.2643 34.7713 43.6643 36.9542 43.063 39.1366C42.9918 39.395 42.9053 39.6481 42.8401 39.9082C42.3408 41.9011 41.2778 42.4409 39.5766 41.5062Z" fill="#121316"/>
</svg>
