<svg width="274" height="274" viewBox="0 0 274 274" fill="none" xmlns="http://www.w3.org/2000/svg">
<path d="M136.935 273.913H136.767V259.689H136.928C138.164 259.688 139.403 259.67 140.637 259.634L141.05 273.852C139.684 273.891 138.312 273.912 136.935 273.913ZM124.847 273.387C123.416 273.261 121.993 273.116 120.575 272.947L122.25 258.823C123.523 258.973 124.803 259.105 126.087 259.217L124.847 273.387ZM152.956 272.984L151.292 258.858C152.576 258.706 153.852 258.537 155.123 258.35L157.208 272.419C155.799 272.629 154.382 272.817 152.956 272.984ZM108.795 271.019C107.388 270.725 105.989 270.41 104.599 270.073L107.946 256.249C109.191 256.551 110.443 256.833 111.702 257.095L108.795 271.019ZM168.93 270.153L165.612 256.321C166.865 256.021 168.11 255.701 169.348 255.364L173.091 269.085C171.712 269.462 170.325 269.818 168.93 270.153ZM93.1304 266.761C91.7653 266.3 90.4103 265.818 89.0648 265.317L94.0373 251.991C95.2422 252.441 96.4566 252.87 97.6784 253.283L93.1304 266.761ZM184.462 265.44L179.52 252.103C180.727 251.655 181.925 251.19 183.113 250.706L188.47 263.884C187.144 264.422 185.808 264.941 184.462 265.44ZM78.0703 260.658C76.7727 260.039 75.4874 259.401 74.2128 258.744L80.7288 246.102C81.8723 246.691 83.0266 247.264 84.1903 247.818L78.0703 260.658ZM199.317 258.912L192.829 246.253C193.97 245.669 195.101 245.068 196.221 244.447L203.105 256.895C201.854 257.586 200.591 258.258 199.317 258.912ZM63.851 252.812C62.6366 252.046 61.435 251.259 60.247 250.455L68.2213 238.678C69.285 239.398 70.3608 240.101 71.4483 240.789L63.851 252.812ZM213.288 250.673L205.342 238.876C206.407 238.159 207.462 237.425 208.504 236.676L216.808 248.224C215.648 249.059 214.474 249.874 213.288 250.673ZM50.6642 243.346C49.5512 242.443 48.4518 241.521 47.3678 240.583L56.6748 229.828C57.6465 230.668 58.6311 231.493 59.6293 232.304L50.6642 243.346ZM226.188 240.843L216.908 230.063C217.884 229.223 218.846 228.369 219.795 227.501L229.396 237.995C228.342 238.96 227.272 239.909 226.188 240.843ZM38.6898 232.397C37.6917 231.37 36.7098 230.326 35.7441 229.269L46.2487 219.679C47.1142 220.627 47.9963 221.563 48.8916 222.484L38.6898 232.397ZM237.84 229.567L227.364 219.946C228.234 218.999 229.088 218.039 229.928 217.066L240.7 226.354C239.763 227.441 238.81 228.511 237.84 229.567ZM28.0887 220.119C27.2184 218.983 26.3648 217.83 25.5289 216.663L37.0957 208.384C37.8424 209.428 38.6054 210.457 39.3839 211.475L28.0887 220.119ZM248.094 216.99L236.557 208.67C237.309 207.628 238.045 206.574 238.764 205.507L250.558 213.46C249.755 214.651 248.933 215.827 248.094 216.99ZM19.0087 206.681C18.2796 205.451 17.5693 204.209 16.878 202.953L29.3383 196.092C29.9566 197.215 30.5925 198.328 31.2446 199.428L19.0087 206.681ZM256.796 203.287L244.357 196.388C244.98 195.265 245.586 194.13 246.175 192.985L258.826 199.486C258.168 200.766 257.492 202.031 256.796 203.287ZM11.5818 192.266C11.0047 190.959 10.4465 189.643 9.90919 188.314L23.0953 182.981C23.5757 184.169 24.0745 185.347 24.5908 186.514L11.5818 192.266ZM263.817 188.636L250.644 183.27C251.129 182.078 251.597 180.878 252.046 179.668L265.381 184.618C264.88 185.968 264.359 187.306 263.817 188.636ZM5.91864 177.064C5.50039 175.696 5.10234 174.319 4.7259 172.932L18.4526 169.204C18.7898 170.445 19.1459 171.679 19.521 172.906L5.91864 177.064ZM269.042 173.258L255.326 169.492C255.665 168.258 255.984 167.015 256.285 165.764L270.114 169.092C269.778 170.488 269.421 171.878 269.042 173.258ZM2.10385 161.289C1.85239 159.884 1.62125 158.471 1.41116 157.05L15.4825 154.971C15.671 156.247 15.8785 157.516 16.1049 158.778L2.10385 161.289ZM272.396 157.378L258.328 155.275C258.518 154.006 258.689 152.733 258.84 151.453L272.965 153.118C272.798 154.544 272.607 155.963 272.396 157.378ZM0.188653 145.183C0.103534 143.758 0.0412443 142.328 0 140.892L14.2174 140.483C14.2546 141.774 14.3114 143.058 14.3871 144.337L0.188653 145.183ZM273.847 141.226L259.629 140.785C259.669 139.505 259.689 138.22 259.689 136.93V136.661H273.913V136.93C273.913 138.368 273.891 139.8 273.847 141.226ZM14.3721 129.78L0.171065 128.969C0.253554 127.533 0.357501 126.101 0.48456 124.678L14.652 125.941C14.5383 127.215 14.4452 128.495 14.3721 129.78ZM259.209 125.988C259.096 124.704 258.962 123.425 258.81 122.153L272.932 120.459C273.103 121.876 273.251 123.301 273.378 124.734L259.209 125.988ZM16.059 115.34L2.05376 112.856C2.30455 111.442 2.57691 110.035 2.87019 108.636L16.7915 111.556C16.5279 112.811 16.284 114.072 16.059 115.34ZM257.075 111.603C256.811 110.345 256.528 109.093 256.225 107.848L270.047 104.488C270.385 105.879 270.702 107.279 270.996 108.684L257.075 111.603ZM19.4454 101.204L5.83491 97.0738C6.25316 95.6938 6.69315 94.3233 7.15402 92.9637L20.6267 97.5239C20.2144 98.7429 19.8203 99.9702 19.4454 101.204ZM253.248 97.5806C252.837 96.3614 252.407 95.1532 251.959 93.9544L265.281 88.9725C265.783 90.3146 266.264 91.6662 266.724 93.0285L253.248 97.5806ZM24.4996 87.5533L11.477 81.8307C12.0562 80.513 12.6563 79.206 13.2753 77.9112L26.1086 84.0446C25.5545 85.2043 25.0179 86.3733 24.4996 87.5533ZM247.782 84.1189C247.229 82.9607 246.66 81.8132 246.072 80.6765L258.711 74.1512C259.366 75.4203 260.002 76.7002 260.618 77.991L247.782 84.1189ZM31.1393 74.608L18.8912 67.3772C19.621 66.1404 20.3698 64.9172 21.1361 63.7062L33.1544 71.3129C32.4666 72.3996 31.7948 73.4983 31.1393 74.608ZM240.756 71.4021C240.07 70.3168 239.367 69.2422 238.648 68.1813L250.427 60.207C251.229 61.3923 252.013 62.5885 252.778 63.7981L240.756 71.4021ZM39.2657 62.5385L27.9583 53.9101C28.8286 52.7694 29.716 51.6435 30.6215 50.5312L41.6519 59.511C40.8409 60.5071 40.0455 61.5167 39.2657 62.5385ZM232.272 59.5947C231.462 58.5987 230.637 57.6134 229.797 56.6429L240.554 47.3361C241.49 48.42 242.41 49.5161 243.313 50.6285L232.272 59.5947ZM48.7591 51.511L38.5439 41.6149C39.54 40.5863 40.553 39.5726 41.5809 38.5752L51.4854 48.785C50.5628 49.6796 49.6539 50.5879 48.7591 51.511ZM222.451 48.8633C221.53 47.9672 220.595 47.0874 219.646 46.2223L229.234 35.7152C230.294 36.6829 231.337 37.6656 232.366 38.6644L222.451 48.8633ZM59.4792 41.6798L50.5007 30.6483C51.6104 29.7453 52.7342 28.8587 53.8709 27.991L62.5061 39.2929C61.4844 40.074 60.4755 40.8687 59.4792 41.6798ZM211.432 39.3564C210.415 38.5765 209.384 37.8129 208.341 37.0655L216.621 25.5014C217.79 26.3381 218.945 27.1936 220.085 28.0681L211.432 39.3564ZM71.2772 33.1798L63.6611 21.167C64.8681 20.4019 66.0885 19.6545 67.3205 18.926L74.5583 31.1713C73.4533 31.8241 72.3599 32.4931 71.2772 33.1798ZM199.376 31.2186C198.272 30.563 197.155 29.9265 196.029 29.306L202.886 16.8446C204.147 17.538 205.394 18.2503 206.629 18.9829L199.376 31.2186ZM83.9875 26.1394L77.8487 13.3076C79.1354 12.6926 80.4336 12.0952 81.7419 11.5181L87.4808 24.5337C86.3062 25.0513 85.1418 25.5865 83.9875 26.1394ZM186.438 24.5607C185.264 24.0417 184.08 23.5431 182.886 23.0605L188.213 9.87183C189.55 10.4112 190.876 10.9721 192.19 11.5533L186.438 24.5607ZM97.4372 20.6588L92.8607 7.19172C94.2157 6.73084 95.5794 6.29155 96.9519 5.87261L101.105 19.4775C99.8747 19.8533 98.6516 20.2465 97.4372 20.6588ZM172.795 19.4924C171.573 19.118 170.343 18.7639 169.105 18.4287L172.818 4.69939C174.209 5.07515 175.59 5.4725 176.962 5.89283L172.795 19.4924ZM111.452 16.8162L108.517 2.89783C109.916 2.60317 111.323 2.33012 112.736 2.07739L115.235 16.0797C113.968 16.3054 112.707 16.5513 111.452 16.8162ZM158.668 16.0891C157.409 15.8635 156.143 15.658 154.87 15.4714L156.93 1.39894C158.354 1.6071 159.77 1.83684 161.179 2.08957L158.668 16.0891ZM125.829 14.6645L124.566 0.497406C125.986 0.370368 127.413 0.2649 128.846 0.181172L129.679 14.3808C128.389 14.4564 127.106 14.551 125.829 14.6645ZM144.23 14.3848C142.951 14.3091 141.667 14.2537 140.378 14.2186L140.773 0C142.21 0.0405486 143.642 0.101447 145.067 0.185174L144.23 14.3848Z" fill="url(#paint0_linear_25843_55411)"/>
<defs>
<linearGradient id="paint0_linear_25843_55411" x1="0" y1="136.956" x2="273.913" y2="136.956" gradientUnits="userSpaceOnUse">
<stop offset="0.0027" stop-color="#ABFFAB"/>
<stop offset="0.1397" stop-color="#00D764"/>
<stop offset="0.1805" stop-color="#00C75C"/>
<stop offset="0.3335" stop-color="#009244"/>
<stop offset="0.4836" stop-color="#006730"/>
<stop offset="0.6275" stop-color="#004520"/>
<stop offset="0.7635" stop-color="#002C15"/>
<stop offset="0.8885" stop-color="#001E0E"/>
<stop offset="0.9923" stop-color="#00190C"/>
</linearGradient>
</defs>
</svg>
